<?xml version="1.0" encoding="utf-8"?>
<!-- Generator: Adobe Illustrator 16.0.0, SVG Export Plug-In . SVG Version: 6.00 Build 0)  -->
<!DOCTYPE svg PUBLIC "-//W3C//DTD SVG 1.1//EN" "http://www.w3.org/Graphics/SVG/1.1/DTD/svg11.dtd">
<svg version="1.1" id="Layer_1" xmlns="http://www.w3.org/2000/svg" xmlns:xlink="http://www.w3.org/1999/xlink" x="0px" y="0px"
	 width="283.465px" height="85.039px" viewBox="111.267 30.98 283.465 85.039"
	 enable-background="new 111.267 30.98 283.465 85.039" xml:space="preserve">
<g>
	<g display="none">
		<path display="inline" fill="#FFFFFF" d="M-375.447,358.404h0.928l-3.057,4l3.36,4.32h-0.912l-3.008-3.953h-1.392v3.953h-0.784
			v-8.32h0.784v3.729h1.328L-375.447,358.404z"/>
		<path display="inline" fill="#FFFFFF" d="M-368.743,366.885c-0.715,0-1.352-0.189-1.911-0.568
			c-0.561-0.377-1.012-0.84-1.353-1.383v5.199h-0.8v-11.729h0.736v1.664c0.341-0.533,0.792-0.969,1.352-1.305s1.16-0.504,1.8-0.504
			c0.576,0,1.109,0.123,1.601,0.369c0.49,0.244,0.911,0.566,1.264,0.967c0.352,0.4,0.626,0.861,0.824,1.385
			c0.197,0.523,0.296,1.055,0.296,1.602c0,0.574-0.091,1.125-0.272,1.646c-0.181,0.521-0.439,0.98-0.775,1.375
			c-0.336,0.396-0.739,0.707-1.208,0.938C-367.66,366.77-368.178,366.885-368.743,366.885z M-368.935,366.164
			c0.479,0,0.917-0.102,1.312-0.305c0.395-0.201,0.73-0.471,1.009-0.807c0.277-0.336,0.489-0.721,0.64-1.152
			c0.148-0.432,0.224-0.873,0.224-1.32c0-0.479-0.085-0.936-0.256-1.367c-0.171-0.434-0.408-0.813-0.712-1.145
			c-0.304-0.33-0.659-0.596-1.064-0.793s-0.837-0.295-1.296-0.295c-0.288,0-0.595,0.063-0.92,0.184
			c-0.325,0.123-0.632,0.287-0.92,0.496c-0.288,0.207-0.533,0.445-0.735,0.713c-0.203,0.268-0.32,0.549-0.353,0.848v2.736
			c0.139,0.309,0.314,0.598,0.528,0.863s0.454,0.502,0.72,0.703c0.267,0.203,0.555,0.361,0.864,0.473
			S-369.266,366.164-368.935,366.164z"/>
		<path display="inline" fill="#FFFFFF" d="M-360.967,366.885c-0.384,0-0.741-0.066-1.072-0.199s-0.622-0.314-0.872-0.545
			c-0.251-0.229-0.444-0.5-0.584-0.816c-0.139-0.313-0.208-0.652-0.208-1.016s0.085-0.693,0.257-0.992
			c0.17-0.297,0.407-0.557,0.712-0.773c0.304-0.221,0.669-0.391,1.096-0.514c0.426-0.123,0.896-0.184,1.408-0.184
			c0.447,0,0.897,0.039,1.352,0.119s0.861,0.189,1.225,0.328v-0.816c0-0.789-0.225-1.416-0.673-1.879
			c-0.447-0.465-1.056-0.697-1.823-0.697c-0.405,0-0.834,0.086-1.288,0.256c-0.454,0.172-0.915,0.416-1.385,0.736l-0.304-0.543
			c1.066-0.727,2.08-1.088,3.04-1.088c1.003,0,1.792,0.291,2.368,0.871c0.576,0.582,0.864,1.385,0.864,2.408v4.063
			c0,0.268,0.117,0.4,0.352,0.4v0.721c-0.053,0.01-0.108,0.018-0.168,0.023c-0.059,0.006-0.108,0.008-0.151,0.008
			c-0.214,0-0.385-0.072-0.513-0.217s-0.203-0.316-0.224-0.52v-0.689c-0.384,0.502-0.875,0.887-1.472,1.152
			C-359.629,366.752-360.274,366.885-360.967,366.885z M-360.807,366.244c0.619,0,1.187-0.117,1.704-0.352
			c0.517-0.234,0.915-0.545,1.191-0.928c0.17-0.227,0.257-0.439,0.257-0.643v-1.471c-0.385-0.15-0.784-0.262-1.2-0.336
			s-0.849-0.113-1.296-0.113c-0.416,0-0.794,0.047-1.137,0.137c-0.342,0.092-0.635,0.217-0.88,0.377
			c-0.246,0.158-0.435,0.354-0.567,0.584c-0.134,0.23-0.2,0.482-0.2,0.76s0.053,0.539,0.16,0.785
			c0.106,0.244,0.256,0.455,0.447,0.631c0.192,0.176,0.418,0.314,0.681,0.416C-361.386,366.193-361.106,366.244-360.807,366.244z"/>
		<path display="inline" fill="#FFFFFF" d="M-354.983,362.531c0-0.586,0.102-1.141,0.304-1.664c0.203-0.521,0.485-0.975,0.848-1.357
			c0.362-0.385,0.794-0.689,1.296-0.912c0.501-0.225,1.051-0.336,1.648-0.336c0.757,0,1.424,0.17,2,0.512s1.008,0.816,1.296,1.424
			l-0.784,0.256c-0.245-0.459-0.595-0.818-1.048-1.078c-0.454-0.264-0.952-0.395-1.496-0.395c-0.458,0-0.885,0.092-1.28,0.273
			c-0.395,0.182-0.738,0.432-1.031,0.752c-0.293,0.318-0.525,0.693-0.696,1.127c-0.171,0.432-0.256,0.898-0.256,1.398
			c0,0.502,0.088,0.975,0.264,1.416c0.176,0.443,0.411,0.828,0.704,1.152c0.293,0.326,0.64,0.584,1.04,0.777
			c0.4,0.189,0.824,0.287,1.272,0.287c0.287,0,0.572-0.043,0.855-0.129s0.544-0.195,0.784-0.336c0.24-0.139,0.448-0.301,0.624-0.486
			c0.176-0.188,0.296-0.383,0.359-0.584l0.784,0.223c-0.106,0.289-0.27,0.559-0.487,0.809c-0.22,0.25-0.479,0.467-0.776,0.648
			c-0.299,0.182-0.629,0.322-0.992,0.424s-0.736,0.152-1.12,0.152c-0.587,0-1.131-0.115-1.632-0.344
			c-0.501-0.23-0.936-0.545-1.304-0.945s-0.656-0.861-0.864-1.383C-354.879,363.689-354.983,363.131-354.983,362.531z"/>
		<path display="inline" fill="#FFFFFF" d="M-344.887,365.604l5.36-7.199h0.672v8.32h-0.8v-7.072l-5.265,7.072h-0.752v-8.32h0.784
			V365.604L-344.887,365.604z"/>
		<path display="inline" fill="#FFFFFF" d="M-332.327,358.404c0.299,0,0.57,0.057,0.816,0.168c0.245,0.111,0.456,0.262,0.632,0.447
			c0.176,0.188,0.313,0.406,0.408,0.656c0.096,0.252,0.144,0.51,0.144,0.775c0,0.396-0.099,0.775-0.296,1.145
			c-0.196,0.369-0.493,0.643-0.888,0.824c0.469,0.129,0.84,0.377,1.112,0.744c0.271,0.367,0.407,0.809,0.407,1.318
			c0,0.32-0.059,0.617-0.176,0.889s-0.279,0.51-0.487,0.713c-0.208,0.201-0.456,0.359-0.744,0.473s-0.598,0.168-0.929,0.168h-3.983
			v-8.32H-332.327L-332.327,358.404z M-332.647,362.195c0.224,0,0.432-0.041,0.624-0.127c0.191-0.086,0.354-0.203,0.487-0.352
			c0.134-0.15,0.237-0.322,0.313-0.521c0.074-0.197,0.112-0.408,0.112-0.633c0-0.416-0.125-0.775-0.376-1.08
			c-0.251-0.303-0.605-0.455-1.064-0.455h-2.976v3.168H-332.647L-332.647,362.195z M-332.391,366.102
			c0.234,0,0.453-0.045,0.656-0.137c0.203-0.09,0.376-0.213,0.52-0.367c0.145-0.154,0.256-0.334,0.336-0.537
			c0.08-0.201,0.12-0.41,0.12-0.623s-0.038-0.416-0.112-0.609c-0.074-0.189-0.182-0.361-0.319-0.512
			c-0.139-0.148-0.308-0.27-0.504-0.357c-0.197-0.092-0.414-0.139-0.648-0.139h-3.184v3.281H-332.391z"/>
		<path display="inline" fill="#FFFFFF" d="M-328.023,358.404h0.784v3.039h2.016c0.811,0,1.469,0.23,1.976,0.689
			c0.506,0.459,0.761,1.104,0.761,1.936c0,0.404-0.066,0.771-0.2,1.096c-0.134,0.326-0.323,0.605-0.568,0.842
			c-0.246,0.232-0.536,0.412-0.872,0.535c-0.336,0.121-0.702,0.184-1.096,0.184h-2.8V358.404z M-325.223,366.035
			c0.661,0,1.148-0.188,1.464-0.566s0.472-0.846,0.472-1.4c0-0.553-0.154-1.016-0.464-1.383c-0.31-0.369-0.8-0.553-1.472-0.553
			h-2.016v3.902H-325.223L-325.223,366.035z M-321.255,358.404h0.784v8.32h-0.784V358.404z"/>
		<path display="inline" fill="#FFFFFF" d="M-314.423,366.885c-0.587,0-1.131-0.115-1.632-0.344s-0.937-0.545-1.304-0.943
			c-0.368-0.4-0.656-0.861-0.864-1.385s-0.313-1.082-0.313-1.682c0-0.586,0.104-1.137,0.313-1.654s0.493-0.971,0.855-1.359
			c0.363-0.389,0.792-0.697,1.288-0.92c0.496-0.225,1.032-0.336,1.608-0.336c0.586,0,1.131,0.113,1.632,0.344
			c0.501,0.229,0.934,0.539,1.296,0.928c0.362,0.391,0.646,0.844,0.849,1.359c0.201,0.518,0.304,1.064,0.304,1.641
			c0,0.055,0,0.119,0,0.199s-0.005,0.131-0.017,0.152h-7.296c0.032,0.479,0.145,0.926,0.336,1.336
			c0.192,0.412,0.436,0.766,0.729,1.063c0.293,0.301,0.632,0.535,1.016,0.705s0.794,0.256,1.232,0.256
			c0.288,0,0.571-0.039,0.848-0.119c0.277-0.08,0.536-0.189,0.776-0.328s0.453-0.307,0.64-0.504c0.188-0.197,0.333-0.414,0.44-0.648
			l0.704,0.193c-0.118,0.299-0.291,0.572-0.521,0.822c-0.229,0.25-0.496,0.467-0.8,0.648s-0.637,0.322-1,0.424
			C-313.667,366.834-314.04,366.885-314.423,366.885z M-311.16,362.244c-0.031-0.49-0.141-0.938-0.327-1.344
			c-0.188-0.406-0.428-0.754-0.721-1.049c-0.293-0.293-0.632-0.521-1.016-0.688s-0.794-0.248-1.232-0.248
			c-0.438,0-0.848,0.082-1.231,0.248c-0.384,0.164-0.724,0.395-1.017,0.688c-0.293,0.295-0.527,0.646-0.704,1.057
			c-0.176,0.41-0.279,0.855-0.312,1.336H-311.16z"/>
		<path display="inline" fill="#FFFFFF" d="M-305.262,362.531c0-0.586,0.102-1.141,0.304-1.664c0.203-0.521,0.485-0.975,0.849-1.357
			c0.361-0.385,0.794-0.689,1.296-0.912c0.501-0.225,1.05-0.336,1.647-0.336c0.757,0,1.424,0.17,2,0.512s1.008,0.816,1.296,1.424
			l-0.783,0.256c-0.245-0.459-0.596-0.818-1.049-1.078c-0.454-0.264-0.951-0.395-1.496-0.395c-0.458,0-0.885,0.092-1.279,0.273
			c-0.396,0.182-0.739,0.432-1.032,0.752c-0.293,0.318-0.525,0.693-0.696,1.127c-0.171,0.432-0.256,0.898-0.256,1.398
			c0,0.502,0.088,0.975,0.264,1.416c0.177,0.443,0.411,0.828,0.704,1.152c0.293,0.326,0.641,0.584,1.04,0.777
			c0.4,0.189,0.824,0.287,1.272,0.287c0.288,0,0.573-0.043,0.855-0.129c0.283-0.086,0.544-0.195,0.784-0.336
			c0.24-0.139,0.448-0.301,0.624-0.486c0.176-0.188,0.296-0.383,0.36-0.584l0.784,0.223c-0.107,0.289-0.271,0.559-0.488,0.809
			c-0.219,0.25-0.479,0.467-0.776,0.648c-0.299,0.182-0.629,0.322-0.992,0.424c-0.362,0.102-0.735,0.152-1.119,0.152
			c-0.588,0-1.132-0.115-1.633-0.344c-0.501-0.23-0.936-0.545-1.304-0.945s-0.656-0.861-0.864-1.383
			C-305.158,363.689-305.262,363.131-305.262,362.531z"/>
		<path display="inline" fill="#FFFFFF" d="M-292.574,366.885c-0.586,0-1.128-0.115-1.623-0.344
			c-0.496-0.229-0.926-0.541-1.288-0.938c-0.363-0.395-0.646-0.854-0.849-1.375c-0.202-0.523-0.304-1.072-0.304-1.648
			c0-0.586,0.104-1.141,0.312-1.662c0.208-0.523,0.493-0.982,0.856-1.377s0.792-0.707,1.288-0.938s1.032-0.344,1.608-0.344
			c0.575,0,1.108,0.113,1.6,0.344s0.92,0.543,1.288,0.938s0.656,0.854,0.864,1.377c0.208,0.521,0.312,1.076,0.312,1.662
			c0,0.576-0.104,1.125-0.312,1.648c-0.208,0.521-0.493,0.98-0.856,1.375c-0.363,0.396-0.792,0.707-1.288,0.938
			C-291.462,366.77-291.998,366.885-292.574,366.885z M-295.838,362.611c0,0.492,0.085,0.953,0.256,1.385
			c0.17,0.434,0.402,0.809,0.696,1.129c0.293,0.318,0.637,0.572,1.032,0.76c0.395,0.188,0.815,0.279,1.264,0.279
			s0.869-0.094,1.264-0.279c0.396-0.186,0.741-0.445,1.04-0.775s0.533-0.713,0.704-1.145c0.17-0.434,0.257-0.898,0.257-1.4
			c0-0.49-0.086-0.951-0.257-1.383c-0.171-0.434-0.405-0.813-0.704-1.137s-0.643-0.584-1.031-0.775
			c-0.391-0.193-0.809-0.289-1.256-0.289c-0.448,0-0.869,0.096-1.265,0.289c-0.395,0.191-0.739,0.453-1.032,0.783
			c-0.293,0.332-0.527,0.719-0.704,1.16C-295.75,361.654-295.838,362.121-295.838,362.611z"/>
		<path display="inline" fill="#FFFFFF" d="M-286.574,358.404h0.784v7.615h4.513v-7.615h0.783v7.615h1.28v3.248h-0.704v-2.543
			h-6.656V358.404L-286.574,358.404z"/>
		<path display="inline" fill="#FFFFFF" d="M-276.814,365.604l5.359-7.199h0.672v8.32h-0.8v-7.072l-5.264,7.072h-0.752v-8.32h0.784
			V365.604L-276.814,365.604z"/>
		<path display="inline" fill="#FFFFFF" d="M-266.222,366.885c-0.384,0-0.741-0.066-1.072-0.199s-0.622-0.314-0.872-0.545
			c-0.251-0.229-0.444-0.5-0.584-0.816c-0.139-0.313-0.208-0.652-0.208-1.016s0.085-0.693,0.256-0.992
			c0.171-0.297,0.408-0.557,0.713-0.773c0.304-0.221,0.669-0.391,1.096-0.514c0.426-0.123,0.896-0.184,1.408-0.184
			c0.447,0,0.897,0.039,1.352,0.119s0.861,0.189,1.224,0.328v-0.816c0-0.789-0.224-1.416-0.672-1.879
			c-0.447-0.465-1.056-0.697-1.823-0.697c-0.405,0-0.835,0.086-1.288,0.256c-0.454,0.172-0.915,0.416-1.385,0.736l-0.304-0.543
			c1.066-0.727,2.08-1.088,3.04-1.088c1.003,0,1.792,0.291,2.368,0.871c0.576,0.582,0.864,1.385,0.864,2.408v4.063
			c0,0.268,0.116,0.4,0.352,0.4v0.721c-0.053,0.01-0.109,0.018-0.168,0.023s-0.109,0.008-0.152,0.008
			c-0.213,0-0.384-0.072-0.512-0.217s-0.203-0.316-0.224-0.52v-0.689c-0.384,0.502-0.875,0.887-1.473,1.152
			C-264.884,366.752-265.529,366.885-266.222,366.885z M-266.062,366.244c0.619,0,1.187-0.117,1.704-0.352
			c0.517-0.234,0.915-0.545,1.191-0.928c0.17-0.227,0.256-0.439,0.256-0.643v-1.471c-0.384-0.15-0.783-0.262-1.199-0.336
			s-0.849-0.113-1.296-0.113c-0.416,0-0.795,0.047-1.137,0.137c-0.342,0.092-0.635,0.217-0.88,0.377
			c-0.246,0.158-0.435,0.354-0.567,0.584c-0.134,0.23-0.2,0.482-0.2,0.76s0.053,0.539,0.16,0.785
			c0.106,0.244,0.256,0.455,0.447,0.631c0.192,0.176,0.418,0.314,0.681,0.416C-266.641,366.193-266.361,366.244-266.062,366.244z"/>
		<path display="inline" fill="#FFFFFF" d="M-260.783,366.035c0.268-0.01,0.51-0.092,0.729-0.246s0.416-0.436,0.592-0.842
			c0.176-0.404,0.333-0.957,0.472-1.654c0.14-0.699,0.268-1.598,0.385-2.695l0.224-2.193h4.624v8.32h-0.8v-7.664h-3.072
			l-0.224,1.889c-0.14,1.131-0.291,2.066-0.456,2.809c-0.166,0.74-0.36,1.33-0.584,1.768c-0.225,0.439-0.48,0.75-0.769,0.938
			s-0.624,0.285-1.008,0.297L-260.783,366.035z"/>
		<path display="inline" fill="#FFFFFF" d="M-251.23,358.404h0.784v3.039h2.016c0.811,0,1.469,0.23,1.976,0.689
			s0.761,1.104,0.761,1.936c0,0.404-0.066,0.771-0.2,1.096c-0.134,0.326-0.323,0.605-0.568,0.842
			c-0.246,0.232-0.536,0.412-0.872,0.535c-0.336,0.121-0.702,0.184-1.096,0.184h-2.8V358.404L-251.23,358.404z M-248.431,366.035
			c0.661,0,1.148-0.188,1.464-0.566s0.472-0.846,0.472-1.4c0-0.553-0.154-1.016-0.464-1.383c-0.31-0.369-0.8-0.553-1.472-0.553
			h-2.016v3.902H-248.431L-248.431,366.035z"/>
		<path display="inline" fill="#FFFFFF" d="M-243.151,362.115h5.088v-3.711h0.784v8.32h-0.784v-3.92h-5.088v3.92h-0.784v-8.32h0.784
			V362.115z"/>
		<path display="inline" fill="#FFFFFF" d="M-234.751,358.404h0.784v3.039h2.016c0.812,0,1.47,0.23,1.977,0.689
			c0.506,0.459,0.76,1.104,0.76,1.936c0,0.404-0.065,0.771-0.2,1.096c-0.134,0.326-0.322,0.605-0.567,0.842
			c-0.246,0.232-0.536,0.412-0.872,0.535c-0.336,0.121-0.702,0.184-1.097,0.184h-2.8V358.404L-234.751,358.404z M-231.951,366.035
			c0.661,0,1.149-0.188,1.465-0.566c0.314-0.379,0.472-0.846,0.472-1.4c0-0.553-0.155-1.016-0.464-1.383
			c-0.311-0.369-0.8-0.553-1.473-0.553h-2.016v3.902H-231.951L-231.951,366.035z M-227.983,358.404h0.783v8.32h-0.783V358.404z"/>
		<path display="inline" fill="#FFFFFF" d="M-221.151,366.885c-0.587,0-1.132-0.115-1.633-0.344s-0.936-0.545-1.304-0.943
			c-0.368-0.4-0.656-0.861-0.864-1.385s-0.312-1.082-0.312-1.682c0-0.586,0.104-1.137,0.312-1.654s0.493-0.971,0.856-1.359
			s0.792-0.697,1.288-0.92c0.496-0.225,1.032-0.336,1.607-0.336c0.587,0,1.132,0.113,1.633,0.344
			c0.501,0.229,0.933,0.539,1.296,0.928c0.361,0.391,0.645,0.844,0.848,1.359c0.202,0.518,0.304,1.064,0.304,1.641
			c0,0.055,0,0.119,0,0.199s-0.005,0.131-0.016,0.152h-7.296c0.032,0.479,0.144,0.926,0.336,1.336
			c0.192,0.412,0.435,0.766,0.728,1.063c0.293,0.301,0.633,0.535,1.017,0.705s0.794,0.256,1.231,0.256
			c0.288,0,0.571-0.039,0.849-0.119c0.276-0.08,0.536-0.189,0.775-0.328c0.24-0.139,0.453-0.307,0.641-0.504
			c0.187-0.197,0.333-0.414,0.439-0.648l0.704,0.193c-0.118,0.299-0.291,0.572-0.52,0.822c-0.229,0.25-0.496,0.467-0.8,0.648
			c-0.305,0.182-0.638,0.322-1,0.424C-220.394,366.834-220.767,366.885-221.151,366.885z M-217.887,362.244
			c-0.032-0.49-0.141-0.938-0.328-1.344c-0.187-0.406-0.427-0.754-0.72-1.049c-0.293-0.293-0.632-0.521-1.017-0.688
			c-0.384-0.166-0.794-0.248-1.231-0.248c-0.438,0-0.848,0.082-1.232,0.248c-0.384,0.164-0.723,0.395-1.016,0.688
			c-0.293,0.295-0.528,0.646-0.704,1.057s-0.28,0.855-0.312,1.336H-217.887z"/>
		<path display="inline" fill="#FFFFFF" d="M-206.534,358.404h0.929l-3.057,4l3.36,4.32h-0.912l-3.008-3.953h-1.392v3.953h-0.784
			v-8.32h0.784v3.729h1.327L-206.534,358.404z"/>
		<path display="inline" fill="#FFFFFF" d="M-203.11,362.115h5.088v-3.711h0.784v8.32h-0.784v-3.92h-5.088v3.92h-0.784v-8.32h0.784
			V362.115z"/>
		<path display="inline" fill="#FFFFFF" d="M-191.238,366.885c-0.587,0-1.129-0.115-1.624-0.344
			c-0.496-0.229-0.926-0.541-1.288-0.938c-0.363-0.395-0.646-0.854-0.849-1.375c-0.202-0.523-0.304-1.072-0.304-1.648
			c0-0.586,0.104-1.141,0.312-1.662c0.208-0.523,0.493-0.982,0.856-1.377s0.792-0.707,1.288-0.938s1.032-0.344,1.608-0.344
			c0.575,0,1.108,0.113,1.6,0.344s0.92,0.543,1.288,0.938s0.656,0.854,0.864,1.377c0.208,0.521,0.312,1.076,0.312,1.662
			c0,0.576-0.104,1.125-0.312,1.648c-0.208,0.521-0.493,0.98-0.856,1.375c-0.363,0.396-0.792,0.707-1.288,0.938
			C-190.126,366.77-190.662,366.885-191.238,366.885z M-194.502,362.611c0,0.492,0.085,0.953,0.256,1.385
			c0.17,0.434,0.402,0.809,0.696,1.129c0.293,0.318,0.637,0.572,1.032,0.76c0.395,0.188,0.815,0.279,1.264,0.279
			s0.869-0.094,1.265-0.279c0.395-0.186,0.74-0.445,1.039-0.775s0.533-0.713,0.704-1.145c0.17-0.434,0.256-0.898,0.256-1.4
			c0-0.49-0.085-0.951-0.256-1.383c-0.171-0.434-0.405-0.813-0.704-1.137s-0.643-0.584-1.031-0.775
			c-0.391-0.193-0.809-0.289-1.256-0.289c-0.448,0-0.869,0.096-1.265,0.289c-0.395,0.191-0.739,0.453-1.032,0.783
			c-0.293,0.332-0.527,0.719-0.703,1.16C-194.414,361.654-194.502,362.121-194.502,362.611z"/>
		<path display="inline" fill="#FFFFFF" d="M-178.838,366.725h-0.784v-7.615h-4.832v7.615h-0.783v-8.32h6.399V366.725z"/>
		<path display="inline" fill="#FFFFFF" d="M-171.43,358.404h0.928l-3.056,4l3.36,4.32h-0.912l-3.009-3.953h-1.392v3.953h-0.784
			v-8.32h0.784v3.729h1.328L-171.43,358.404z"/>
		<path display="inline" fill="#FFFFFF" d="M-168.006,365.604l5.36-7.199h0.672v8.32h-0.8v-7.072l-5.265,7.072h-0.752v-8.32h0.784
			V365.604z"/>
	</g>
</g>
<g>
	<path fill="#FEFEFE" d="M150.064,60.925c0-0.026,0.006-0.04,0.02-0.04c0.013,0,0.02-0.013,0.02-0.04
		c0.292-0.186,0.578-0.286,0.857-0.299c0.279-0.013,0.591,0.18,0.938,0.579c-0.692,1.41-1.476,2.918-2.354,4.526
		c-0.877,1.609-1.795,3.157-2.751,4.646c-0.958,1.49-1.935,2.839-2.932,4.049c-0.998,1.21-1.948,2.107-2.852,2.691
		c-0.584,2.926-1.243,5.843-1.974,8.755c-0.732,2.911-1.536,5.689-2.413,8.336c-0.877,2.645-1.848,5.104-2.912,7.377
		c-1.063,2.273-2.228,4.214-3.49,5.824c-1.264,1.607-2.632,2.831-4.108,3.669c-1.476,0.838-3.065,1.149-4.766,0.937
		c-1.515-0.187-2.719-0.917-3.609-2.193s-1.336-2.871-1.336-4.786c0-0.904,0.12-1.821,0.358-2.752
		c0.665-2.419,1.569-4.674,2.712-6.76c1.144-2.088,2.446-4.055,3.909-5.903c1.462-1.848,3.044-3.603,4.746-5.264
		c1.701-1.662,3.456-3.277,5.265-4.846c0.212-1.037,0.425-2.061,0.638-3.071c0.212-1.01,0.425-1.94,0.638-2.792l0.638-2.712
		c-0.744,1.143-1.542,2.253-2.393,3.331c-0.852,1.076-1.748,2.033-2.692,2.871c-0.944,0.839-1.934,1.516-2.971,2.035
		c-1.037,0.518-2.088,0.776-3.151,0.776c-1.037,0-1.908-0.179-2.612-0.538c-0.704-0.359-1.276-0.844-1.715-1.457
		c-0.438-0.611-0.751-1.315-0.938-2.112c-0.186-0.798-0.279-1.649-0.279-2.553c0-0.186,0.007-0.392,0.02-0.618
		c0.014-0.226,0.034-0.445,0.06-0.658c0.16-1.329,0.499-2.804,1.017-4.426c0.518-1.622,1.183-3.264,1.994-4.926
		c0.811-1.661,1.748-3.276,2.812-4.846c1.063-1.569,2.22-2.958,3.47-4.167c1.249-1.21,2.579-2.18,3.988-2.912
		c1.409-0.731,2.872-1.097,4.387-1.097c1.169,0,2.214,0.279,3.131,0.837c0.917,0.559,1.682,1.283,2.293,2.173
		c0.612,0.892,1.057,1.889,1.336,2.992s0.365,2.213,0.259,3.33c-0.054,0.373-0.114,0.731-0.179,1.077
		c-0.066,0.346-0.167,0.705-0.299,1.077c-0.054,0.08-0.213,0.166-0.479,0.258c-0.266,0.094-0.439,0.14-0.519,0.14
		c-0.346,0-0.638-0.146-0.877-0.438c0.106-0.292,0.18-0.571,0.22-0.837s0.086-0.545,0.14-0.838c0.026-0.664-0.02-1.362-0.14-2.094
		c-0.12-0.73-0.333-1.389-0.638-1.974c-0.306-0.585-0.712-1.07-1.216-1.456c-0.505-0.385-1.117-0.578-1.835-0.578
		c-0.931,0-1.875,0.366-2.832,1.097c-0.957,0.731-1.875,1.675-2.752,2.832s-1.702,2.453-2.473,3.889
		c-0.771,1.436-1.456,2.865-2.054,4.287c-0.598,1.422-1.084,2.759-1.456,4.008c-0.373,1.25-0.585,2.26-0.639,3.031
		c-0.053,0.373-0.067,0.771-0.04,1.196c0.026,0.426,0.1,0.818,0.219,1.177s0.313,0.651,0.578,0.877s0.639,0.34,1.117,0.34
		c0.744,0,1.502-0.306,2.273-0.918c0.771-0.611,1.536-1.396,2.293-2.353c0.758-0.958,1.482-2.014,2.174-3.171
		c0.691-1.156,1.316-2.266,1.875-3.33c0.132-0.292,0.265-0.624,0.398-0.997c0.133-0.372,0.226-0.744,0.279-1.117
		c0.026-0.132,0.04-0.259,0.04-0.379c0-0.12,0-0.246,0-0.379l-0.16-0.917c-0.054-0.159-0.08-0.298-0.08-0.418s0-0.219,0-0.299
		c0.054-0.372,0.226-0.618,0.519-0.738c0.292-0.12,0.638-0.193,1.037-0.219c0.877,0,1.628,0.1,2.254,0.298
		c0.624,0.2,1.136,0.479,1.535,0.838c0.398,0.359,0.704,0.772,0.917,1.236c0.212,0.466,0.358,0.978,0.438,1.536
		c-0.133,1.436-0.279,2.878-0.438,4.327s-0.346,2.971-0.559,4.566c0.718-0.664,1.442-1.495,2.174-2.493
		c0.73-0.997,1.449-2.067,2.153-3.21c0.705-1.143,1.376-2.313,2.014-3.51C148.948,63.119,149.532,61.989,150.064,60.925z
		 M118.596,104.876c0,0.691,0.154,1.263,0.459,1.715c0.306,0.452,0.817,0.679,1.535,0.679c0.638-0.08,1.243-0.339,1.815-0.778
		c0.572-0.438,1.123-1.004,1.655-1.694c0.797-1.012,1.541-2.228,2.233-3.649c0.691-1.423,1.343-2.932,1.955-4.527
		c0.612-1.595,1.176-3.21,1.695-4.845c0.518-1.636,1.003-3.171,1.456-4.606l0.837-2.753l0.239-1.076l0.16-0.479
		c-1.861,1.464-3.649,3.125-5.364,4.985c-1.715,1.861-3.265,3.844-4.646,5.943c-0.293,0.479-0.665,1.164-1.117,2.055
		c-0.451,0.89-0.897,1.867-1.336,2.931c-0.438,1.063-0.811,2.135-1.116,3.212C118.75,103.062,118.596,104.024,118.596,104.876z"/>
	<path fill="#FEFEFE" d="M156.685,79.749c-1.515,0-2.779-0.404-3.789-1.216c-1.011-0.811-1.828-1.84-2.453-3.091
		c-0.625-1.249-1.063-2.632-1.316-4.147c-0.253-1.515-0.379-2.991-0.379-4.427c0-0.399,0-0.791,0-1.177
		c0-0.385,0.026-0.738,0.08-1.057c0.105-1.276,0.253-2.459,0.439-3.55c0.186-1.09,0.424-2.02,0.718-2.792
		c0.531-0.638,1.15-1.103,1.854-1.396c0.705-0.292,1.429-0.439,2.174-0.439c0.425,0,0.858,0.054,1.296,0.16
		c0.439,0.105,0.844,0.253,1.216,0.438c0.133-1.409,0.365-2.811,0.698-4.208c0.332-1.396,0.823-2.651,1.475-3.769
		c0.652-1.117,1.502-2.02,2.553-2.712c1.051-0.691,2.373-1.038,3.968-1.038c1.303,0,2.414,0.273,3.33,0.818
		c0.917,0.545,1.676,1.283,2.274,2.213c0.598,0.931,1.037,2.034,1.316,3.311c0.279,1.275,0.419,2.646,0.419,4.108
		c0,0.797-0.04,1.555-0.12,2.273v-0.04c-0.213,2.074-0.652,4.201-1.316,6.381c-0.665,2.181-1.502,4.228-2.513,6.142
		c1.037-0.212,1.955-0.604,2.752-1.176c0.798-0.571,1.529-1.263,2.194-2.074c0.664-0.812,1.27-1.702,1.814-2.672
		c0.544-0.971,1.07-1.948,1.575-2.932l0.877-1.595c0.133-0.053,0.259-0.105,0.379-0.16c0.12-0.053,0.22-0.08,0.299-0.08
		c0.133,0,0.266,0.053,0.399,0.159c0.132,0.107,0.239,0.319,0.319,0.638c-0.452,1.063-1.037,2.28-1.755,3.649
		c-0.718,1.37-1.569,2.666-2.552,3.889c-0.984,1.223-2.107,2.273-3.37,3.151c-1.263,0.877-2.667,1.355-4.208,1.436
		c-0.692,1.036-1.43,1.98-2.213,2.831c-0.785,0.852-1.629,1.581-2.533,2.193c-0.904,0.611-1.849,1.091-2.832,1.437
		C158.772,79.577,157.748,79.749,156.685,79.749z M164.581,72.61c-1.33-0.398-2.473-0.923-3.43-1.575
		c-0.958-0.651-1.755-1.416-2.393-2.293s-1.136-1.848-1.496-2.912c-0.359-1.063-0.605-2.207-0.738-3.43
		c-0.08,0.426-0.14,0.865-0.18,1.316c-0.04,0.452-0.086,0.905-0.14,1.356c-0.08,0.851-0.12,1.674-0.12,2.473
		c0,0.984,0.06,1.935,0.18,2.851c0.12,0.917,0.325,1.729,0.618,2.434c0.292,0.705,0.678,1.27,1.157,1.695
		c0.479,0.426,1.063,0.638,1.755,0.638c0.903,0,1.741-0.213,2.513-0.638C163.079,74.1,163.837,73.462,164.581,72.61z
		 M160.952,59.291c0,1.116,0.066,2.287,0.199,3.509c0.132,1.223,0.393,2.36,0.777,3.41c0.385,1.051,0.917,1.954,1.596,2.712
		s1.575,1.243,2.692,1.456c0.505-0.823,0.978-1.735,1.417-2.731c0.438-0.998,0.831-2.021,1.176-3.072
		c0.346-1.05,0.632-2.127,0.858-3.23c0.225-1.103,0.379-2.174,0.458-3.21c0.053-0.372,0.08-0.725,0.08-1.057
		c0-0.332,0-0.671,0-1.017c0-1.143-0.099-2.22-0.299-3.23s-0.505-1.888-0.917-2.632c-0.413-0.745-0.944-1.336-1.595-1.775
		c-0.652-0.438-1.416-0.658-2.293-0.658c-0.612,0-1.15,0.219-1.615,0.658c-0.465,0.439-0.857,1.031-1.176,1.775
		c-0.319,0.745-0.572,1.609-0.758,2.592c-0.186,0.984-0.333,2.008-0.439,3.071c-0.053,0.479-0.093,1.011-0.119,1.595
		C160.965,58.041,160.952,58.651,160.952,59.291z"/>
	<path fill="#FEFEFE" d="M183.964,79.749c-1.516,0-2.779-0.404-3.789-1.216c-1.011-0.811-1.828-1.84-2.453-3.091
		c-0.625-1.249-1.063-2.632-1.316-4.147c-0.253-1.515-0.379-2.991-0.379-4.427c0-0.399,0-0.791,0-1.177
		c0-0.385,0.026-0.738,0.08-1.057c0.105-1.276,0.253-2.459,0.439-3.55c0.186-1.09,0.424-2.02,0.718-2.792
		c0.531-0.638,1.15-1.103,1.854-1.396c0.704-0.292,1.429-0.439,2.173-0.439c0.425,0,0.858,0.054,1.297,0.16
		c0.438,0.105,0.843,0.253,1.216,0.438c0.133-1.409,0.365-2.811,0.698-4.208c0.333-1.396,0.824-2.651,1.476-3.769
		c0.652-1.117,1.502-2.02,2.553-2.712c1.05-0.691,2.374-1.038,3.969-1.038c1.302,0,2.413,0.273,3.33,0.818s1.675,1.283,2.273,2.213
		c0.598,0.931,1.037,2.034,1.316,3.311c0.279,1.275,0.419,2.646,0.419,4.108c0,0.797-0.04,1.555-0.12,2.273v-0.04
		c-0.214,2.074-0.652,4.201-1.316,6.381c-0.666,2.181-1.502,4.228-2.513,6.142c1.037-0.212,1.954-0.604,2.751-1.176
		c0.798-0.571,1.529-1.263,2.194-2.074c0.664-0.812,1.27-1.702,1.814-2.672c0.544-0.971,1.07-1.948,1.576-2.932l0.877-1.595
		c0.133-0.053,0.259-0.105,0.378-0.16c0.12-0.053,0.22-0.08,0.299-0.08c0.133,0,0.266,0.053,0.399,0.159
		c0.133,0.107,0.239,0.319,0.319,0.638c-0.452,1.063-1.037,2.28-1.755,3.649c-0.718,1.37-1.569,2.666-2.552,3.889
		c-0.984,1.223-2.107,2.273-3.37,3.151c-1.263,0.877-2.667,1.355-4.208,1.436c-0.692,1.036-1.43,1.98-2.213,2.831
		c-0.785,0.852-1.629,1.581-2.533,2.193c-0.904,0.611-1.849,1.091-2.832,1.437C186.052,79.577,185.027,79.749,183.964,79.749z
		 M191.861,72.61c-1.33-0.398-2.473-0.923-3.429-1.575c-0.958-0.651-1.755-1.416-2.394-2.293c-0.638-0.877-1.136-1.848-1.496-2.912
		c-0.358-1.063-0.604-2.207-0.738-3.43c-0.08,0.426-0.14,0.865-0.18,1.316c-0.04,0.452-0.086,0.905-0.14,1.356
		c-0.079,0.851-0.119,1.674-0.119,2.473c0,0.984,0.06,1.935,0.179,2.851c0.12,0.917,0.325,1.729,0.619,2.434
		c0.292,0.705,0.678,1.27,1.156,1.695c0.479,0.426,1.063,0.638,1.755,0.638c0.903,0,1.741-0.213,2.513-0.638
		C190.359,74.1,191.116,73.462,191.861,72.61z M188.232,59.291c0,1.116,0.066,2.287,0.2,3.509c0.132,1.223,0.392,2.36,0.777,3.41
		c0.385,1.051,0.917,1.954,1.596,2.712c0.678,0.758,1.575,1.243,2.691,1.456c0.505-0.823,0.977-1.735,1.416-2.731
		c0.439-0.998,0.831-2.021,1.176-3.072c0.346-1.05,0.632-2.127,0.858-3.23c0.225-1.103,0.379-2.174,0.458-3.21
		c0.053-0.372,0.08-0.725,0.08-1.057c0-0.332,0-0.671,0-1.017c0-1.143-0.1-2.22-0.299-3.23s-0.505-1.888-0.917-2.632
		c-0.413-0.745-0.944-1.336-1.595-1.775c-0.652-0.438-1.416-0.658-2.293-0.658c-0.612,0-1.151,0.219-1.615,0.658
		c-0.465,0.439-0.857,1.031-1.177,1.775s-0.572,1.609-0.758,2.592c-0.186,0.984-0.333,2.008-0.438,3.071
		c-0.054,0.479-0.093,1.011-0.12,1.595C188.245,58.041,188.232,58.651,188.232,59.291z"/>
	<path fill="#FEFEFE" d="M223.846,80.308c-2.34,0-3.995-0.591-4.965-1.774c-0.971-1.184-1.456-2.851-1.456-5.005
		c0-0.239,0.006-0.499,0.02-0.778c0.012-0.279,0.033-0.564,0.059-0.856c0-0.187,0-0.333,0-0.439c0-0.106,0.007-0.212,0.02-0.319
		c0.014-0.105,0.027-0.232,0.04-0.379c0.013-0.146,0.046-0.352,0.1-0.617c-0.745,1.223-1.556,2.433-2.433,3.628
		c-0.877,1.197-1.814,2.273-2.812,3.231c-0.997,0.957-2.041,1.729-3.131,2.313s-2.207,0.878-3.35,0.878
		c-1.037,0-1.914-0.18-2.632-0.539c-0.718-0.358-1.296-0.844-1.735-1.456c-0.439-0.611-0.751-1.322-0.938-2.134
		c-0.186-0.811-0.279-1.654-0.279-2.532c0-0.212,0-0.426,0-0.639c0-0.212,0.014-0.425,0.04-0.637
		c0.16-1.329,0.499-2.805,1.017-4.427c0.519-1.621,1.183-3.264,1.995-4.926c0.81-1.662,1.747-3.277,2.811-4.846
		c1.063-1.568,2.227-2.958,3.49-4.167c1.262-1.21,2.598-2.181,4.007-2.912c1.409-0.73,2.873-1.096,4.388-1.096
		c0.718,0,1.382,0.106,1.994,0.319c0.611,0.213,1.183,0.518,1.715,0.917l0.399-1.515c0.292-1.25,0.571-2.446,0.838-3.589
		c0.265-1.143,0.504-2.193,0.718-3.151c0.213-0.958,0.385-1.794,0.519-2.513c0.133-0.717,0.212-1.275,0.24-1.674
		c0.026-0.452,0.02-0.838-0.02-1.157c-0.04-0.319-0.086-0.598-0.139-0.837c-0.028-0.133-0.047-0.26-0.06-0.379
		c-0.014-0.12-0.02-0.232-0.02-0.339c0.026-0.372,0.193-0.618,0.499-0.738c0.305-0.119,0.645-0.179,1.017-0.179
		c1.037,0,1.868,0.16,2.493,0.479c0.624,0.319,1.097,0.739,1.416,1.258c0.319,0.52,0.52,1.111,0.598,1.777
		c0.081,0.665,0.093,1.344,0.04,2.035c-0.053,0.612-0.173,1.438-0.359,2.477s-0.425,2.215-0.718,3.533
		c-0.292,1.317-0.618,2.742-0.977,4.272c-0.36,1.531-0.726,3.106-1.097,4.729c-0.106,0.533-0.253,1.179-0.438,1.937
		c-0.187,0.758-0.386,1.563-0.599,2.415c-0.292,1.119-0.592,2.316-0.896,3.593c-0.307,1.277-0.592,2.548-0.858,3.812
		c-0.266,1.264-0.479,2.475-0.638,3.633c-0.159,1.158-0.239,2.176-0.239,3.054c0,0.24,0,0.466,0,0.68
		c0,0.213,0.026,0.413,0.08,0.599c0.159,1.092,0.638,1.637,1.436,1.637c0.319,0,0.671-0.08,1.057-0.24
		c0.384-0.159,0.764-0.364,1.136-0.617c0.372-0.253,0.731-0.531,1.077-0.838c0.345-0.306,0.651-0.604,0.917-0.898
		c0.69-0.77,1.355-1.641,1.994-2.611c0.639-0.971,1.243-1.961,1.814-2.972c0.571-1.009,1.103-2.013,1.596-3.011
		c0.492-0.997,0.937-1.894,1.336-2.691c0.372-0.744,0.684-1.382,0.936-1.915c0.253-0.531,0.459-0.903,0.619-1.117
		c0.105-0.08,0.219-0.132,0.339-0.159c0.12-0.027,0.219-0.04,0.299-0.04c0.213,0,0.391,0.074,0.538,0.219
		c0.146,0.147,0.272,0.326,0.379,0.539c-0.265,0.479-0.525,1.011-0.777,1.596c-0.253,0.586-0.525,1.157-0.818,1.715
		c-0.478,0.958-0.971,1.948-1.476,2.971c-0.505,1.024-1.03,2.042-1.576,3.051c-0.545,1.011-1.104,1.994-1.674,2.951
		c-0.572,0.958-1.164,1.835-1.774,2.633c-0.453,0.559-0.932,1.115-1.437,1.669c-0.505,0.555-1.05,1.056-1.635,1.501
		c-0.585,0.448-1.21,0.814-1.875,1.104C225.375,80.086,224.645,80.256,223.846,80.308z M218.822,64.235
		c0.292-1.33,0.598-2.706,0.917-4.128c0.319-1.422,0.651-2.865,0.998-4.327c0.054-0.293,0.126-0.565,0.22-0.818
		c0.093-0.252,0.166-0.524,0.219-0.818c-0.532-0.399-1.17-0.598-1.914-0.598c-0.931,0-1.875,0.366-2.832,1.097
		c-0.958,0.731-1.875,1.675-2.752,2.832c-0.877,1.157-1.701,2.453-2.473,3.889c-0.772,1.436-1.456,2.865-2.054,4.287
		c-0.599,1.422-1.084,2.759-1.456,4.008c-0.373,1.25-0.585,2.26-0.638,3.032c-0.054,0.373-0.066,0.771-0.04,1.196
		c0.027,0.425,0.1,0.819,0.219,1.177c0.12,0.358,0.312,0.651,0.578,0.877c0.266,0.227,0.638,0.339,1.117,0.339
		c0.585,0,1.197-0.213,1.835-0.638c0.638-0.426,1.276-0.983,1.915-1.675c0.638-0.691,1.256-1.475,1.854-2.353
		c0.599-0.878,1.169-1.762,1.715-2.653c0.545-0.891,1.037-1.755,1.476-2.593c0.438-0.837,0.818-1.561,1.136-2.173L218.822,64.235z"
		/>
	<path fill="#FEFEFE" d="M236.887,43.976c0.479-0.426,1.043-0.745,1.696-0.958c0.651-0.213,1.309-0.32,1.974-0.32
		c0.452,0,0.891,0.055,1.316,0.16c0.426,0.106,0.798,0.279,1.118,0.519c0.319,0.239,0.578,0.552,0.777,0.937
		c0.199,0.386,0.299,0.845,0.299,1.376c0,0.824-0.187,1.769-0.559,2.832c-0.373,1.064-0.811,2.194-1.316,3.39
		c-0.239,0.612-0.485,1.223-0.738,1.834c-0.253,0.612-0.485,1.236-0.698,1.875c1.037,1.542,2.02,3.098,2.951,4.666
		c0.931,1.57,1.755,3.085,2.473,4.547c0.718,1.463,1.29,2.831,1.715,4.108c0.426,1.276,0.651,2.379,0.678,3.311
		c0.612-0.904,1.21-1.848,1.795-2.832c0.585-0.983,1.149-1.96,1.695-2.931c0.544-0.971,1.043-1.895,1.496-2.772
		c0.451-0.877,0.838-1.648,1.157-2.313c0-0.026,0.025-0.066,0.079-0.12c0.026-0.026,0.04-0.053,0.04-0.08l0.319-0.638h-0.04
		c0.133-0.266,0.259-0.478,0.379-0.638s0.325-0.24,0.618-0.24c0.479,0,0.823,0.266,1.037,0.798l-0.239,0.478l-0.12,0.12
		c-0.399,0.772-0.857,1.675-1.376,2.712c-0.519,1.038-1.083,2.128-1.695,3.271c-0.612,1.143-1.263,2.3-1.954,3.47
		c-0.692,1.17-1.396,2.287-2.114,3.35c-0.718,1.064-1.449,2.028-2.193,2.892c-0.745,0.864-1.462,1.563-2.154,2.094
		c-0.638,0.452-1.35,0.852-2.134,1.196c-0.785,0.345-1.589,0.639-2.413,0.877c-0.825,0.24-1.655,0.426-2.493,0.56
		c-0.838,0.132-1.629,0.198-2.373,0.198c-0.877,0-1.695-0.078-2.453-0.235c-0.758-0.156-1.409-0.399-1.954-0.727
		c-0.545-0.326-0.963-0.74-1.256-1.239c-0.292-0.5-0.412-1.096-0.359-1.787c0.053-0.372,0.246-0.75,0.578-1.137
		c0.334-0.385,0.712-0.578,1.137-0.578c0.318,0,0.505,0.146,0.559,0.438c0.054,0.293,0.066,0.599,0.04,0.917
		c0,0.426,0.1,0.771,0.299,1.037c0.199,0.266,0.465,0.466,0.797,0.599c0.333,0.133,0.698,0.22,1.096,0.259
		c0.399,0.04,0.797,0.047,1.196,0.02c2.127-0.08,3.669-0.758,4.627-2.035c0.957-1.278,1.476-3.021,1.555-5.231
		c0-0.718-0.099-1.524-0.299-2.416c-0.199-0.891-0.459-1.815-0.777-2.774c-0.319-0.958-0.692-1.903-1.117-2.834
		c-0.426-0.933-0.891-1.785-1.396-2.556l-1.755,3.953l-1.436-0.52l2.113-4.991c-0.932-1.197-1.688-2.594-2.273-4.192
		c-0.585-1.596-0.877-3.22-0.877-4.871c0-1.277,0.22-2.515,0.658-3.713C235.033,45.893,235.797,44.854,236.887,43.976z
		 M239.919,53.108c0.239-0.585,0.498-1.23,0.778-1.935c0.279-0.704,0.524-1.376,0.737-2.014c0.212-0.638,0.372-1.216,0.479-1.734
		c0.105-0.52,0.105-0.884,0-1.097h0.04c-0.16-0.319-0.333-0.492-0.519-0.518c-0.239-0.027-0.498,0.126-0.777,0.458
		c-0.279,0.333-0.539,0.785-0.777,1.356c-0.24,0.572-0.439,1.216-0.599,1.934c-0.159,0.718-0.239,1.436-0.239,2.154
		c0,0.852,0.159,1.635,0.479,2.353L239.919,53.108z"/>
	<path fill="#FEFEFE" d="M261.217,61.164c0.345-0.451,0.664-0.931,0.957-1.436c0.292-0.504,0.624-1.023,0.997-1.556
		c0.718-1.117,1.462-2.239,2.233-3.37c0.771-1.13,1.581-2.154,2.433-3.071c0.852-0.917,1.748-1.661,2.692-2.233
		c0.943-0.571,1.947-0.857,3.012-0.857c0.718,0,1.322,0.127,1.814,0.379c0.491,0.253,0.87,0.605,1.136,1.057
		c0.266,0.452,0.445,0.977,0.539,1.576c0.093,0.598,0.101,1.257,0.021,1.974c-0.134,1.463-0.486,3.11-1.058,4.945
		s-1.163,3.669-1.774,5.504c-0.611,1.755-1.17,3.45-1.675,5.085c-0.506,1.635-0.824,3.052-0.957,4.248
		c0,0.266,0.006,0.578,0.02,0.937c0.013,0.359,0.046,0.699,0.1,1.018c0.054,0.319,0.146,0.586,0.279,0.797
		c0.133,0.214,0.306,0.319,0.519,0.319c0.426,0,0.964-0.364,1.615-1.097c0.651-0.729,1.356-1.654,2.114-2.772
		c0.758-1.117,1.516-2.326,2.272-3.629c0.758-1.303,1.456-2.539,2.094-3.709c0.639-1.169,1.17-2.167,1.596-2.991
		c0.425-0.823,0.679-1.302,0.758-1.436l0.119-0.28h-0.039c0.132-0.266,0.259-0.478,0.379-0.638c0.119-0.16,0.339-0.24,0.657-0.24
		c0.214,0,0.399,0.074,0.56,0.219c0.159,0.147,0.291,0.326,0.398,0.539l-1.196,2.433c-0.532,1.037-1.117,2.181-1.755,3.43
		c-0.639,1.25-1.316,2.499-2.034,3.749s-1.47,2.453-2.253,3.609c-0.785,1.157-1.576,2.18-2.373,3.072
		c-0.798,0.891-1.615,1.608-2.453,2.153s-1.654,0.817-2.453,0.817c-0.931,0-1.702-0.132-2.313-0.398
		c-0.611-0.266-1.11-0.639-1.495-1.117c-0.386-0.478-0.658-1.05-0.818-1.715c-0.159-0.664-0.239-1.396-0.239-2.194
		c0-0.186,0-0.385,0-0.598s0.014-0.412,0.04-0.598c0.133-1.038,0.345-2.14,0.638-3.311c0.292-1.169,0.632-2.366,1.017-3.589
		c0.386-1.223,0.792-2.426,1.217-3.609c0.426-1.183,0.838-2.294,1.236-3.33c0.531-1.436,1.003-2.712,1.416-3.829
		c0.412-1.116,0.645-1.941,0.698-2.473c0.025-0.478-0.094-0.717-0.359-0.717c-0.479,0-1.03,0.259-1.655,0.777
		c-0.624,0.519-1.289,1.196-1.993,2.035c-0.705,0.837-1.417,1.774-2.135,2.811c-0.718,1.037-1.409,2.081-2.073,3.13
		c-0.665,1.051-1.271,2.042-1.814,2.972c-0.546,0.93-1.005,1.702-1.377,2.313v-0.04l-0.638,1.117h0.04
		c-0.452,1.064-0.831,2.3-1.137,3.709c-0.306,1.41-0.525,2.739-0.658,3.988c-0.054,0.931-0.033,1.729,0.06,2.394
		c0.093,0.664,0.18,1.184,0.26,1.555c0.08,0.24,0.119,0.438,0.119,0.599c0,0.372-0.306,0.558-0.917,0.558
		c-0.957,0-1.748-0.192-2.373-0.578c-0.625-0.385-1.117-0.89-1.476-1.516c-0.358-0.624-0.612-1.336-0.758-2.134
		c-0.146-0.797-0.219-1.608-0.219-2.433c0-0.265,0.007-0.531,0.02-0.797c0.014-0.266,0.034-0.544,0.06-0.838
		c0.08-0.93,0.253-2.127,0.519-3.589c0.266-1.462,0.591-3.071,0.978-4.826c0.385-1.755,0.804-3.602,1.256-5.543
		c0.452-1.941,0.904-3.856,1.356-5.744c0.346-1.515,0.69-2.984,1.036-4.407c0.346-1.422,0.646-2.732,0.897-3.929
		c0.253-1.196,0.466-2.24,0.638-3.13c0.174-0.891,0.286-1.576,0.34-2.054c0.025-0.452,0.02-0.831-0.021-1.137
		c-0.039-0.306-0.086-0.591-0.14-0.857c-0.026-0.133-0.047-0.26-0.06-0.379c-0.013-0.12-0.02-0.232-0.02-0.339
		c0.026-0.372,0.186-0.618,0.479-0.738c0.292-0.12,0.624-0.179,0.997-0.179c1.01,0,1.828,0.166,2.453,0.498
		c0.624,0.333,1.103,0.758,1.436,1.277s0.545,1.11,0.638,1.774c0.094,0.665,0.113,1.33,0.06,1.995
		c-0.054,0.398-0.179,1.104-0.379,2.113c-0.199,1.011-0.445,2.187-0.738,3.53c-0.292,1.343-0.617,2.779-0.977,4.307
		c-0.358,1.53-0.698,3.011-1.017,4.447L261.217,61.164z"/>
	<path fill="#FEFEFE" d="M302.614,61.244c-0.054,0.08-0.206,0.159-0.459,0.239c-0.252,0.08-0.432,0.12-0.538,0.12
		c-0.319,0-0.598-0.16-0.838-0.479c0.106-0.292,0.18-0.565,0.22-0.818c0.04-0.252,0.086-0.524,0.14-0.818
		c0.026-0.665-0.02-1.362-0.14-2.093c-0.119-0.731-0.339-1.39-0.658-1.975c-0.318-0.584-0.731-1.07-1.236-1.456
		c-0.505-0.385-1.117-0.578-1.835-0.578c-0.931,0-1.874,0.366-2.831,1.096c-0.957,0.732-1.875,1.675-2.752,2.832
		c-0.878,1.157-1.701,2.453-2.473,3.889c-0.771,1.436-1.456,2.866-2.055,4.288c-0.598,1.422-1.084,2.758-1.455,4.008
		c-0.373,1.25-0.586,2.26-0.638,3.031c-0.028,0.373-0.034,0.772-0.021,1.197c0.013,0.426,0.086,0.817,0.22,1.177
		c0.132,0.358,0.332,0.651,0.598,0.877s0.638,0.338,1.117,0.338c0.823,0,1.695-0.418,2.612-1.256
		c0.917-0.837,1.808-1.854,2.672-3.051c0.864-1.197,1.669-2.453,2.412-3.77c0.745-1.315,1.369-2.466,1.875-3.449
		c0.08-0.292,0.206-0.638,0.38-1.038c0.172-0.399,0.232-0.837,0.179-1.316c-0.054-0.372,0.093-0.618,0.438-0.738
		c0.346-0.12,0.719-0.192,1.117-0.219c1.568,0.133,2.665,0.499,3.29,1.097c0.624,0.599,0.978,1.31,1.057,2.134
		c0.08,0.852-0.007,1.769-0.259,2.752c-0.253,0.984-0.445,1.902-0.579,2.752c-0.026,0.186-0.073,0.493-0.14,0.917
		c-0.066,0.426-0.127,0.891-0.179,1.396c-0.054,0.506-0.094,1.017-0.12,1.535c-0.026,0.519-0.006,0.951,0.06,1.296
		c0.066,0.346,0.186,0.572,0.358,0.678c0.174,0.107,0.433,0.015,0.778-0.278c0.638-0.638,1.316-1.469,2.034-2.493
		c0.718-1.023,1.429-2.114,2.134-3.27c0.704-1.157,1.382-2.326,2.034-3.51c0.651-1.183,1.242-2.266,1.774-3.25
		c0.292-0.638,0.592-1.242,0.897-1.814c0.306-0.571,0.564-1.043,0.777-1.416c0.187-0.08,0.385-0.12,0.599-0.12
		c0.239,0,0.432,0.074,0.578,0.219c0.146,0.147,0.272,0.326,0.379,0.539l-0.399,0.877c-0.372,0.745-0.804,1.608-1.296,2.592
		s-1.023,2.021-1.595,3.11c-0.572,1.091-1.185,2.194-1.835,3.311c-0.652,1.117-1.304,2.181-1.955,3.19
		c-0.651,1.011-1.315,1.934-1.993,2.772c-0.679,0.838-1.323,1.51-1.935,2.015c-0.532,0.452-1.171,0.824-1.915,1.117
		s-1.476,0.438-2.193,0.438c-0.957,0-1.701-0.34-2.233-1.018s-0.924-1.489-1.177-2.433c-0.252-0.943-0.393-1.921-0.418-2.932
		c-0.027-1.01,0.013-1.848,0.119-2.512c0-0.053,0-0.086,0-0.1c0-0.014,0.013-0.113,0.04-0.3c-0.718,1.196-1.51,2.36-2.373,3.491
		c-0.864,1.13-1.782,2.133-2.752,3.011c-0.971,0.877-1.988,1.589-3.051,2.134c-1.064,0.545-2.154,0.818-3.271,0.818
		c-1.037,0-1.915-0.187-2.633-0.56c-0.718-0.372-1.289-0.863-1.715-1.476c-0.425-0.611-0.731-1.329-0.917-2.153
		c-0.187-0.823-0.279-1.688-0.279-2.593c0-0.159,0-0.345,0-0.558c0-0.213,0.014-0.412,0.04-0.598
		c0.159-1.329,0.498-2.805,1.017-4.427c0.519-1.621,1.184-3.263,1.994-4.926c0.812-1.661,1.748-3.276,2.813-4.845
		c1.063-1.568,2.227-2.958,3.489-4.168c1.263-1.209,2.599-2.181,4.009-2.912c1.408-0.73,2.871-1.097,4.387-1.097
		c1.17,0,2.206,0.28,3.11,0.838c0.904,0.558,1.662,1.283,2.273,2.173s1.057,1.889,1.336,2.991c0.279,1.104,0.379,2.213,0.299,3.331
		c-0.08,0.771-0.239,1.489-0.479,2.153L302.614,61.244z"/>
	<path fill="#FEFEFE" d="M319.525,99.133c-1.411,0-2.727-0.226-3.949-0.679c-1.224-0.452-2.3-1.144-3.23-2.074
		c-0.932-0.931-1.675-2.093-2.233-3.489c-0.558-1.396-0.851-3.037-0.877-4.926c-3.802-1.116-8.097-1.675-12.883-1.675
		c-1.994,0-4.061,0.086-6.201,0.259c-2.141,0.174-4.354,0.433-6.641,0.778c-3.164,0.479-6.262,1.163-9.292,2.054
		c-3.032,0.891-5.844,2.014-8.437,3.37c-2.592,1.356-4.892,2.965-6.899,4.825c-2.007,1.861-3.569,3.989-4.687,6.383
		c-0.025,0.053-0.06,0.126-0.1,0.219s-0.073,0.18-0.1,0.261c-0.133,0.372-0.319,0.783-0.559,1.235
		c-0.239,0.451-0.598,0.704-1.076,0.758c-0.532-0.027-0.978-0.333-1.336-0.918c-0.359-0.586-0.644-1.249-0.857-1.994
		c-0.266-0.824-0.399-1.729-0.399-2.712c0-1.091,0.179-2.174,0.539-3.249c0.358-1.078,0.844-2.114,1.456-3.112
		c0.611-0.996,1.323-1.947,2.134-2.851c0.812-0.904,1.655-1.716,2.532-2.433c1.543-1.144,3.311-2.154,5.305-3.032
		c1.993-0.878,4.128-1.635,6.401-2.273c2.272-0.638,4.627-1.17,7.06-1.595c2.433-0.427,4.846-0.758,7.238-0.998
		c1.276-0.133,2.559-0.219,3.849-0.26c1.29-0.04,2.532-0.06,3.729-0.06c3.669,0,7.179,0.279,10.529,0.839
		c3.35,0.558,6.435,1.489,9.253,2.791c0.426-2.446,0.917-4.732,1.476-6.86c0.559-2.127,1.143-4.127,1.755-6.001
		c0.611-1.875,1.236-3.623,1.874-5.245c0.639-1.622,1.237-3.137,1.795-4.546c0.213-0.559,0.419-1.11,0.618-1.655
		c0.199-0.544,0.419-1.097,0.658-1.655c-0.239,0-0.458,0-0.658,0s-0.393-0.013-0.578-0.04c-0.214,0-0.466-0.006-0.758-0.019
		c-0.293-0.013-0.545-0.034-0.758-0.061l-2.712,5.624c-0.56-0.133-0.944-0.219-1.157-0.259c-0.213-0.04-0.398-0.1-0.559-0.18
		c0.452-0.931,0.91-1.835,1.376-2.712c0.465-0.877,0.924-1.781,1.376-2.712c-0.983-0.053-1.809-0.279-2.474-0.678
		c-0.664-0.399-1.195-0.911-1.595-1.535c-0.398-0.625-0.671-1.329-0.818-2.113c-0.146-0.784-0.179-1.589-0.1-2.413
		c0.08-0.903,0.3-1.814,0.659-2.732c0.358-0.917,0.844-1.741,1.455-2.473c0.611-0.731,1.323-1.323,2.134-1.775
		c0.811-0.452,1.721-0.679,2.732-0.679c1.117,0,1.935,0.353,2.453,1.057c0.519,0.705,0.737,1.722,0.657,3.051
		c-0.08,0.666-0.206,1.363-0.379,2.095c-0.174,0.731-0.358,1.442-0.559,2.133c-0.198,0.691-0.405,1.33-0.618,1.915
		s-0.386,1.064-0.519,1.436c-0.054,0.08-0.08,0.146-0.08,0.199s-0.026,0.133-0.079,0.239c0.291,0.054,0.631,0.094,1.017,0.12
		c0.385,0.027,0.764,0.04,1.137,0.04c0.213,0,0.432-0.006,0.657-0.02c0.226-0.013,0.459-0.02,0.699-0.02
		c0.212,0,0.425-0.006,0.638-0.02c0.212-0.013,0.411-0.02,0.598-0.02c0.479,0,0.917,0.02,1.316,0.059
		c0.398,0.04,0.758,0.127,1.076,0.26c0.665,0.292,0.998,0.983,0.998,2.073c0,0.638-0.106,1.376-0.319,2.214
		s-0.466,1.695-0.758,2.572c-0.293,0.877-0.611,1.742-0.958,2.593c-0.346,0.851-0.651,1.596-0.916,2.233
		c-0.106,0.239-0.228,0.505-0.359,0.797c-0.133,0.293-0.239,0.559-0.319,0.797c-0.505,1.437-1.023,2.919-1.556,4.448
		s-1.044,3.051-1.535,4.565c-0.492,1.517-0.937,3.005-1.336,4.467c-0.398,1.463-0.731,2.858-0.997,4.188
		c0.611,0.452,1.163,0.891,1.655,1.315c0.492,0.426,0.978,0.904,1.456,1.437c0-1.675,0.398-3.058,1.196-4.147
		c0.797-1.091,1.795-1.861,2.99-2.313c1.037-0.373,2.008-0.559,2.912-0.559c0.958,0,1.821,0.18,2.593,0.538
		c0.771,0.359,1.428,0.839,1.974,1.437c0.545,0.599,0.963,1.289,1.257,2.073c0.292,0.784,0.438,1.615,0.438,2.492
		c0,0.905-0.213,1.829-0.638,2.773c-0.427,0.943-1.058,1.84-1.895,2.691c-0.838,0.851-1.875,1.615-3.111,2.294
		c-1.236,0.678-2.666,1.202-4.287,1.575c-0.398,0.053-0.817,0.101-1.256,0.14C320.342,99.113,319.923,99.133,319.525,99.133z
		 M313.262,53.707c-0.054,0.505,0.006,0.924,0.18,1.256c0.172,0.333,0.512,0.566,1.017,0.698c0.106-0.24,0.272-0.625,0.499-1.157
		c0.225-0.531,0.458-1.123,0.697-1.775c0.24-0.651,0.451-1.309,0.639-1.974c0.186-0.664,0.305-1.25,0.358-1.755
		c0.026-0.558-0.027-0.837-0.16-0.837c-0.213,0-0.492,0.179-0.837,0.538c-0.346,0.359-0.686,0.818-1.018,1.376
		c-0.333,0.559-0.632,1.164-0.897,1.815C313.474,52.543,313.316,53.148,313.262,53.707z M319.245,94.387
		c-0.187-0.559-0.571-1.203-1.156-1.935c-0.585-0.73-1.516-1.469-2.792-2.213c0.08,0.798,0.232,1.588,0.459,2.373
		c0.226,0.783,0.558,1.488,0.997,2.113c0.438,0.624,0.978,1.109,1.615,1.455s1.408,0.452,2.313,0.319
		c1.143-0.133,2.14-0.451,2.991-0.957c0.85-0.506,1.561-1.11,2.134-1.814c0.57-0.705,1.003-1.456,1.296-2.253
		c0.292-0.797,0.438-1.569,0.438-2.313c0-0.905-0.213-1.67-0.638-2.294c-0.426-0.625-1.104-0.937-2.034-0.937
		c-0.16,0-0.353,0.013-0.578,0.039c-0.227,0.026-0.459,0.08-0.698,0.159c-0.452,0.134-0.885,0.366-1.296,0.698
		c-0.413,0.333-0.778,0.731-1.097,1.196c-0.319,0.466-0.572,0.99-0.758,1.575c-0.187,0.586-0.279,1.197-0.279,1.836
		c0,0.798,0.173,1.622,0.519,2.474l-0.04-0.04c0.16,0.291,0.193,0.512,0.101,0.657c-0.094,0.146-0.273,0.3-0.539,0.459
		c-0.266,0.106-0.473,0.093-0.618-0.04s-0.259-0.306-0.339-0.518L319.245,94.387L319.245,94.387z"/>
	<path fill="#FEFEFE" d="M346.007,69.101c-0.718,1.276-1.517,2.613-2.394,4.008s-1.881,2.667-3.011,3.809
		c-1.131,1.144-2.42,2.088-3.869,2.831c-1.449,0.745-3.104,1.117-4.965,1.117c-1.383,0-2.56-0.293-3.53-0.877
		c-0.971-0.585-1.755-1.362-2.353-2.333c-0.599-0.971-1.03-2.088-1.297-3.351c-0.266-1.263-0.398-2.586-0.398-3.968
		c0-0.345,0-0.684,0-1.017c0-0.333,0.026-0.684,0.08-1.057v0.04c0.133-1.489,0.398-2.997,0.798-4.527
		c0.398-1.529,0.91-3.017,1.534-4.467c0.624-1.448,1.35-2.805,2.174-4.068c0.823-1.262,1.735-2.373,2.732-3.331
		s2.061-1.708,3.19-2.253c1.13-0.544,2.307-0.818,3.53-0.818c1.169,0,2.213,0.253,3.13,0.758s1.688,1.164,2.314,1.974
		c0.624,0.812,1.09,1.729,1.396,2.752c0.306,1.024,0.432,2.067,0.38,3.131c-0.16,1.489-0.692,2.858-1.597,4.108
		s-1.994,2.353-3.27,3.311c-1.276,0.957-2.652,1.755-4.128,2.392c-1.476,0.638-2.892,1.104-4.248,1.396
		c-0.106,0.452-0.192,0.917-0.259,1.396c-0.067,0.478-0.127,0.984-0.18,1.516c-0.026,0.213-0.04,0.432-0.04,0.658
		c0,0.227,0,0.446,0,0.658c0,0.585,0.046,1.151,0.14,1.695c0.093,0.546,0.26,1.037,0.499,1.476c0.239,0.439,0.571,0.798,0.997,1.077
		s0.957,0.445,1.595,0.498c1.01-0.026,1.968-0.345,2.873-0.957c0.903-0.611,1.747-1.363,2.531-2.254
		c0.784-0.89,1.503-1.847,2.154-2.871c0.651-1.023,1.229-1.961,1.735-2.812v0.039c0.638-1.117,1.229-2.213,1.774-3.29
		s1.043-2.054,1.495-2.932c0.213-0.399,0.452-0.851,0.719-1.356c0.266-0.504,0.505-0.943,0.718-1.315
		c0.318-0.133,0.519-0.2,0.599-0.2c0.238,0,0.432,0.074,0.578,0.219c0.146,0.147,0.271,0.326,0.379,0.539l-0.399,0.877
		c-0.479,0.983-1.07,2.16-1.774,3.529C347.635,66.223,346.857,67.639,346.007,69.101z M342.935,54.743
		c-0.399-0.771-0.877-1.157-1.437-1.157c-0.505,0-1.057,0.239-1.654,0.719c-0.599,0.478-1.196,1.103-1.795,1.874
		c-0.599,0.772-1.189,1.636-1.775,2.593c-0.585,0.957-1.11,1.915-1.575,2.872c-0.466,0.957-0.877,1.868-1.236,2.732
		c-0.358,0.864-0.604,1.575-0.737,2.134c0.904-0.106,1.954-0.399,3.15-0.877c1.196-0.478,2.347-1.103,3.45-1.875
		c1.103-0.771,2.054-1.661,2.852-2.672c0.797-1.01,1.249-2.113,1.356-3.31C343.639,56.791,343.44,55.781,342.935,54.743z"/>
	<path fill="#FEFEFE" d="M350.136,74.047c0.292,0.505,0.499,0.97,0.618,1.396s0.152,0.825,0.1,1.196
		c-0.079,0.852-0.452,1.511-1.116,1.974c-0.665,0.466-1.356,0.698-2.074,0.698c-0.612,0-1.15-0.225-1.615-0.678
		c-0.466-0.452-0.645-1.25-0.539-2.394c0.026-0.425,0.12-0.843,0.279-1.256c0.159-0.412,0.353-0.784,0.579-1.117
		c0.226-0.332,0.491-0.604,0.797-0.817s0.644-0.319,1.017-0.319c0.319,0,0.645,0.1,0.979,0.299
		C349.492,73.229,349.817,73.568,350.136,74.047z"/>
	<path fill="#FEFEFE" d="M370.015,59.968c0.081,0,0.16-0.014,0.24-0.04c0.186-0.053,0.392-0.08,0.618-0.08
		c0.225,0,0.498,0.146,0.817,0.438c-0.691,1.41-1.482,2.926-2.373,4.547s-1.814,3.177-2.771,4.666
		c-0.958,1.489-1.928,2.832-2.911,4.028c-0.984,1.196-1.929,2.088-2.832,2.672c-0.611,2.898-1.283,5.809-2.015,8.734
		c-0.731,2.925-1.535,5.71-2.413,8.355c-0.877,2.646-1.847,5.105-2.911,7.379c-1.063,2.272-2.22,4.214-3.47,5.822
		c-1.249,1.609-2.612,2.832-4.088,3.67c-1.476,0.837-3.078,1.149-4.807,0.937c-0.744-0.08-1.416-0.313-2.014-0.697
		c-0.599-0.386-1.11-0.885-1.535-1.496c-0.426-0.611-0.758-1.322-0.998-2.134c-0.239-0.812-0.357-1.682-0.357-2.611
		c0-0.905,0.119-1.836,0.357-2.793c0.639-2.446,1.523-4.713,2.652-6.8c1.131-2.088,2.434-4.048,3.909-5.883
		c1.477-1.834,3.071-3.576,4.786-5.225c1.716-1.649,3.477-3.271,5.284-4.865c0.24-1.144,0.513-2.486,0.818-4.028
		c0.306-1.542,0.625-3.15,0.957-4.826c0.334-1.674,0.658-3.356,0.978-5.044s0.605-3.243,0.857-4.666
		c0.253-1.423,0.459-2.653,0.618-3.689c0.159-1.038,0.253-1.742,0.279-2.114c0.053-0.451,0.047-0.851-0.02-1.196
		c-0.066-0.345-0.127-0.664-0.18-0.958c-0.053-0.159-0.08-0.299-0.08-0.418s0-0.22,0-0.299c0.054-0.372,0.226-0.618,0.52-0.738
		c0.292-0.12,0.638-0.193,1.037-0.219c0.877,0,1.627,0.1,2.253,0.299c0.624,0.2,1.136,0.479,1.535,0.838
		c0.398,0.358,0.704,0.771,0.917,1.235c0.212,0.466,0.358,0.978,0.438,1.536c-0.106,1.355-0.232,2.718-0.38,4.087
		c-0.146,1.37-0.332,2.806-0.558,4.308c-0.227,1.502-0.479,3.098-0.758,4.786c-0.279,1.688-0.618,3.53-1.018,5.524
		c0.745-0.611,1.502-1.416,2.274-2.413c0.771-0.997,1.521-2.087,2.252-3.27s1.43-2.406,2.094-3.67
		c0.665-1.262,1.276-2.453,1.835-3.569L370.015,59.968z M338.388,104.038c0,0.691,0.152,1.27,0.459,1.736
		c0.306,0.464,0.831,0.697,1.575,0.697c0.611-0.08,1.21-0.346,1.795-0.798c0.585-0.451,1.143-1.023,1.674-1.715
		c0.772-1.037,1.516-2.3,2.233-3.789c0.719-1.489,1.391-3.051,2.015-4.686c0.626-1.636,1.204-3.291,1.735-4.966
		c0.532-1.675,1.011-3.218,1.436-4.627c0.134-0.426,0.254-0.831,0.358-1.216c0.106-0.386,0.227-0.765,0.359-1.138v0.04
		c0.106-0.347,0.187-0.599,0.239-0.758c0.054-0.159,0.12-0.426,0.199-0.797c-1.86,1.488-3.655,3.163-5.384,5.024
		c-1.729,1.86-3.271,3.843-4.627,5.943c-0.292,0.478-0.671,1.163-1.137,2.054c-0.465,0.891-0.918,1.86-1.356,2.911
		s-0.811,2.121-1.116,3.211C338.543,102.257,338.388,103.215,338.388,104.038z M362.918,42.419c0.212,0.532,0.345,1.024,0.398,1.476
		c0.053,0.453,0.053,0.864,0,1.236c-0.106,0.452-0.286,0.844-0.538,1.177c-0.254,0.333-0.546,0.598-0.878,0.797
		c-0.334,0.199-0.691,0.338-1.077,0.419c-0.386,0.08-0.751,0.093-1.097,0.04c-0.664-0.081-1.21-0.385-1.635-0.917
		c-0.426-0.532-0.519-1.396-0.279-2.593c0.105-0.425,0.26-0.838,0.459-1.236c0.199-0.399,0.438-0.757,0.718-1.077
		c0.279-0.318,0.591-0.564,0.937-0.738c0.346-0.173,0.705-0.245,1.077-0.219c0.346,0.053,0.678,0.206,0.997,0.458
		s0.612,0.645,0.878,1.176L362.918,42.419L362.918,42.419z"/>
	<path fill="#FEFEFE" d="M369.338,43.976c0.479-0.426,1.043-0.745,1.695-0.958c0.651-0.213,1.309-0.32,1.974-0.32
		c0.452,0,0.891,0.055,1.316,0.16c0.425,0.106,0.798,0.279,1.116,0.519c0.32,0.239,0.579,0.552,0.778,0.937
		c0.199,0.386,0.299,0.845,0.299,1.376c0,0.824-0.187,1.769-0.559,2.832c-0.372,1.064-0.812,2.194-1.316,3.39
		c-0.239,0.612-0.485,1.223-0.737,1.834c-0.253,0.612-0.485,1.236-0.698,1.875c1.037,1.542,2.021,3.098,2.951,4.666
		c0.931,1.57,1.755,3.085,2.474,4.547c0.718,1.463,1.289,2.831,1.715,4.108c0.425,1.276,0.65,2.379,0.678,3.311
		c0.612-0.904,1.21-1.848,1.795-2.832c0.584-0.983,1.149-1.96,1.695-2.931c0.544-0.971,1.043-1.895,1.495-2.772
		c0.452-0.877,0.838-1.648,1.156-2.313c0-0.026,0.027-0.066,0.08-0.12c0.027-0.026,0.04-0.053,0.04-0.08l0.319-0.638h-0.04
		c0.133-0.266,0.26-0.478,0.379-0.638c0.12-0.16,0.325-0.24,0.618-0.24c0.479,0,0.824,0.266,1.037,0.798l-0.239,0.478l-0.12,0.12
		c-0.399,0.772-0.857,1.675-1.375,2.712c-0.52,1.038-1.084,2.128-1.696,3.271c-0.611,1.143-1.262,2.3-1.953,3.47
		c-0.692,1.17-1.396,2.287-2.114,3.35c-0.718,1.064-1.449,2.028-2.193,2.892s-1.462,1.563-2.153,2.094
		c-0.639,0.452-1.351,0.852-2.135,1.196s-1.589,0.639-2.412,0.877c-0.824,0.24-1.655,0.426-2.493,0.56
		c-0.838,0.132-1.628,0.198-2.373,0.198c-0.877,0-1.695-0.078-2.452-0.235c-0.758-0.156-1.41-0.399-1.955-0.727
		c-0.544-0.326-0.963-0.74-1.256-1.239c-0.292-0.5-0.412-1.096-0.359-1.787c0.054-0.372,0.246-0.75,0.578-1.137
		c0.334-0.385,0.713-0.578,1.138-0.578c0.318,0,0.505,0.146,0.558,0.438c0.055,0.293,0.067,0.599,0.041,0.917
		c0,0.426,0.099,0.771,0.299,1.037c0.199,0.266,0.465,0.466,0.797,0.599c0.333,0.133,0.698,0.22,1.097,0.259
		c0.398,0.04,0.798,0.047,1.196,0.02c2.127-0.08,3.669-0.758,4.627-2.035c0.957-1.278,1.476-3.021,1.556-5.231
		c0-0.718-0.1-1.524-0.3-2.416c-0.198-0.891-0.458-1.815-0.777-2.774c-0.318-0.958-0.691-1.903-1.116-2.834
		c-0.427-0.933-0.892-1.785-1.396-2.556l-1.755,3.953l-1.436-0.52l2.113-4.991c-0.932-1.197-1.688-2.594-2.273-4.192
		c-0.585-1.596-0.878-3.22-0.878-4.871c0-1.277,0.22-2.515,0.659-3.713C367.483,45.893,368.247,44.854,369.338,43.976z
		 M372.368,53.108c0.24-0.585,0.498-1.23,0.778-1.935c0.279-0.704,0.524-1.376,0.737-2.014c0.212-0.638,0.372-1.216,0.479-1.734
		c0.105-0.52,0.105-0.884,0-1.097h0.04c-0.159-0.319-0.333-0.492-0.52-0.518c-0.239-0.027-0.498,0.126-0.777,0.458
		c-0.279,0.333-0.539,0.785-0.777,1.356c-0.239,0.572-0.438,1.216-0.598,1.934c-0.16,0.718-0.24,1.436-0.24,2.154
		c0,0.852,0.16,1.635,0.479,2.353L372.368,53.108z"/>
</g>
</svg>
