<?xml version="1.0" encoding="utf-8"?>
<!-- Generator: Adobe Illustrator 21.1.0, SVG Export Plug-In . SVG Version: 6.00 Build 0)  -->
<svg version="1.1" id="Layer_1" xmlns="http://www.w3.org/2000/svg" xmlns:xlink="http://www.w3.org/1999/xlink" x="0px" y="0px"
	 viewBox="0 0 708.7 425.2" style="enable-background:new 0 0 708.7 425.2;" xml:space="preserve">
<style type="text/css">
	.st0{fill:#52B687;}
	.st1{fill:#445566;}
	.st2{fill:#FFFFFF;stroke:#1D1D1B;stroke-miterlimit:10;}
</style>
<g>
	<path class="st0" d="M396.8,53.4l-42.5,73.5l-42.5-73.5H170.5l183.8,318.4L538.2,53.4H396.8z"/>
	<path class="st1" d="M396.8,53.4l-42.5,73.5l-42.5-73.5H244l110.3,191l110.3-191H396.8z"/>
</g>
<g>
	<path class="st2" d="M93.4,180.5c1.4-0.9,2.8-1.3,4.6,0.7c-7,14.4-18.4,34.3-27.6,40.4c-9,44.3-23.8,91.7-49.9,88.5
		c-7.6-0.9-12.5-8.1-12.5-17.7c0-2.4,0.3-4.7,0.9-7c6.8-24.7,23.9-41.8,42.1-57.8c1.1-5.3,2.2-10.5,3.2-14.9l1.6-6.9
		c-7.5,11.5-17.5,22.9-28.4,22.9c-10.5,0-14-7.8-14-16.9c0-0.9,0.1-2.2,0.2-3.2c2.5-20.3,21.9-56.8,44.8-56.8
		c12,0,18.8,12.5,17.8,23.7c-0.2,1.9-0.6,3.7-1.2,5.5c-0.8,0.5-1.6,0.9-2.5,1c-0.9-0.1-1.7-0.5-2.2-1.1c0.4-1.4,0.7-2.8,0.9-4.2
		c0.4-6.9-2.4-15.5-9.7-15.5c-14.3,0-29.9,36.7-30.9,48.5c-0.4,3.8,0,9.1,4.7,9.1c7.5,0,16.2-14,21.8-24.8c0.9-1.7,1.4-3.5,1.7-5.4
		c0.1-0.7,0.1-1.3,0.1-2l-0.4-2.4c-0.1-0.6-0.2-1.2-0.2-1.8c0.2-1.8,1.9-2.3,3.9-2.4c9,0,12.3,4.4,13,9.9
		c-0.6,7.3-1.4,14.5-2.5,22.6c7.2-6.8,15.2-21.2,20.5-32C93.3,180.6,93.4,180.6,93.4,180.5z M18.6,298.3c3.2-0.4,6.2-2.7,8.8-6.3
		c8-10.2,14.2-30.1,18.6-44.7l2.1-7l0.6-2.7l0.4-1.2c-9.9,7.9-18.4,17.2-25.4,27.8c-2.9,4.8-10.2,19.5-10.2,28.1
		C13.5,295.8,15,298.3,18.6,298.3z"/>
	<path class="st2" d="M90,195.8c0-1.9,0-3.8,0.2-5.6c0.3-5.5,1.3-10.9,2.9-16.1c2.5-3,6.3-4.7,10.2-4.6c2.2,0,4.4,0.6,6.4,1.5
		c1.4-14.3,6-29.7,22.1-29.7c13.1,0,18.6,11.6,18.6,26.5c0,1.9-0.1,3.8-0.3,5.8v-0.1c-1.2,11.1-4.5,21.8-9.7,31.7
		c10.4-2.1,16-12.4,21.1-22.5l2.2-4c0.5-0.3,1.1-0.5,1.7-0.6c0.7,0,1.4,0.4,1.8,2c-4.6,10.8-14.5,29.8-30.1,30.7
		c-6.9,10.4-16.2,17.7-27,17.7C94.7,228.5,90,210.3,90,195.8z M109.6,184.5c-0.4,2.1-0.6,4.6-0.8,6.8s-0.3,4.2-0.3,6.3
		c0,10,2.3,19.3,9.4,19.3c4.6,0,8.4-2.2,12.1-6.5C116.7,206.3,111.1,196.8,109.6,184.5L109.6,184.5z M134.2,204.7
		c5.6-9.5,9-20.1,10-31c0.2-1.7,0.2-3.5,0.2-5.3c0-11.6-3.9-21.1-13-21.1c-6.3,0-9.1,9.7-10.1,20.5c-0.2,2.4-0.4,5.5-0.4,8.7
		C120.9,188,123,202.6,134.2,204.7L134.2,204.7z"/>
	<path class="st2" d="M159.1,195.8c0-1.9,0-3.8,0.2-5.6c0.3-5.5,1.3-10.9,2.9-16.1c2.5-3,6.3-4.7,10.2-4.6c2.2,0,4.4,0.6,6.4,1.5
		c1.4-14.3,6-29.7,22.1-29.7c13.1,0,18.6,11.6,18.6,26.5c0,1.9-0.1,3.8-0.3,5.8v-0.1c-1.2,11.1-4.5,21.8-9.7,31.7
		c10.4-2.1,16-12.4,21.1-22.5l2.2-4c0.5-0.3,1.1-0.5,1.7-0.6c0.7,0,1.4,0.4,1.8,2c-4.6,10.8-14.5,29.8-30.1,30.7
		c-6.9,10.4-16.2,17.7-27,17.7C163.9,228.5,159.1,210.3,159.1,195.8z M178.8,184.5c-0.4,2.1-0.6,4.6-0.8,6.8s-0.3,4.2-0.3,6.3
		c0,10,2.3,19.3,9.4,19.3c4.6,0,8.4-2.2,12.1-6.5C185.8,206.3,180.3,196.8,178.8,184.5L178.8,184.5z M203.4,204.7
		c5.5-9.5,8.9-20.1,9.9-31.1c0.2-1.7,0.2-3.5,0.2-5.3c0-11.6-3.9-21.1-13-21.1c-6.3,0-9.1,9.7-10.1,20.5c-0.2,2.4-0.4,5.5-0.4,8.7
		C190.1,188,192.2,202.6,203.4,204.7L203.4,204.7z"/>
	<path class="st2" d="M264.1,212.7c0-1.2,0.1-2.6,0.2-4.2c0-1.5,0.1-3,0.4-4.5c-7.5,12.4-18,25.5-29.7,25.5
		c-10.6,0-14.2-7.9-14.2-16.9c0-1,0-2.2,0.1-3.2c2.5-20.3,22-56.8,45-56.8c3.4,0,6.7,1.1,9.4,3.1l0.9-3.8
		c2.9-12.7,5.6-23.6,5.9-27.7c0.1-1.7-0.1-3.4-0.4-5.1c-0.1-0.6-0.2-1.2-0.2-1.8c0.1-1.8,1.9-2.3,3.8-2.3c10.5,0,12.1,7,11.5,14
		c-0.5,6.2-4.2,21.6-8,38c-0.5,2.7-1.6,6.7-2.6,11c-2.9,11.4-6.7,26.7-6.7,35.7c0,1.1,0,2.2,0.2,3.2c0.4,2.9,1.7,4.2,3.6,4.2
		c3.3,0,8-3.5,10.6-6.6c7-7.8,13-20.4,17.1-28.6c1.2-2.6,2.5-5.2,4-7.7c0.5-0.3,1-0.5,1.6-0.5c1.1,0,1.8,0.8,2.3,1.9
		c-1.3,2.4-2.6,5.6-4,8.4c-4.7,9.7-10.3,21.2-16.5,29.5c-4.6,5.8-10.1,11.7-18.1,12.2C268.6,229.9,264.1,223.5,264.1,212.7z
		 M267.7,189.1c1.4-6.7,3.1-14,4.9-21.4c0.3-1.4,0.8-2.6,1.1-4.2c-1.4-1-3.1-1.6-4.9-1.5c-14.3,0-29.9,36.7-30.9,48.5
		c-0.4,3.8,0,9.1,4.7,9.1c9.1,0,20.4-21.3,25.2-30.7L267.7,189.1z"/>
	<path class="st2" d="M315,179.5c-5-6.6-8.8-16.2-9-24.5c0-6.5,2-12.8,7.5-17.3c2.6-2.1,5.9-3.3,9.3-3.2c4.6,0,8.9,2.1,8.9,7.6
		c0,4.2-2.2,9.7-4.7,15.8c-1.2,3-2.5,6.2-3.6,9.4c10.4,15.6,19.7,32.8,19.8,42.1c5.8-8.8,11-18,15.6-27.5c0.1-0.2,0.3-0.5,0.3-0.5
		l0.8-1.6h-0.1c0.6-1.3,1-2.2,2.5-2.2c1.2,0.1,2.3,0.9,2.6,2l-0.6,1.2l-0.3,0.3c-5.9,11.9-18.4,37-29.1,45.1
		c-7.1,4.5-15.4,7-23.9,7.2c-8.9,0-15.9-3.2-15.3-10.2c0.2-1.9,2.2-4.4,4.4-4.4c1.6,0,1.6,1.8,1.5,3.4c-0.1,4.4,4.6,5.1,8.6,4.9
		c10.7-0.4,15.3-7.3,15.7-18.4c-0.1-7.2-3.6-18.3-8.7-26.1 M321.2,160.9c2.5-6,6.1-15,5.1-17.2h0.1c-0.4-0.8-0.8-1.2-1.3-1.3
		c-2.3-0.4-6.1,7.8-6.1,15c0,2.1,0.4,4.1,1.2,6L321.2,160.9z"/>
	<path class="st2" d="M375.2,181.4c1.7-2.3,3.1-5,5-7.6c7.2-11.3,15.6-24.2,26.3-24.2c7.4,0,9.6,5.5,8.9,12.6
		c-0.7,7.2-4,17.3-7.2,26.5c-3.1,8.8-6.1,17.7-6.7,23.7c-0.1,2.7,0.1,7.8,2.3,7.8c6.4,0,25.4-37.5,26.5-39.7l0.3-0.7h-0.1
		c0.6-1.3,1-2.2,2.6-2.2c1.1,0.1,2.1,0.9,2.4,1.9l-3,6.2c-8.1,16-21.4,42.7-33.7,42.7c-9.3,0-12.3-5.8-12.3-13.8c0-1,0-2,0.1-3
		c1.3-10.4,6.5-24.6,10.4-35.1c2.7-7.3,5.1-13.2,5.4-16c0.1-1.3-0.2-1.8-0.9-1.8c-7.3,0-22.5,26.2-28,35.6v-0.1l-1.6,2.8h0.1
		c-2.4,6.3-3.9,12.8-4.6,19.5c-0.2,3.4,0.1,6.7,0.8,10c0.2,0.5,0.3,1,0.3,1.5c0,1.1-0.9,1.4-2.3,1.4c-9.7,0-12.2-8.6-12.2-16.9
		c0-1.3,0.1-2.7,0.2-4.2c0.8-9.4,5.9-30.7,10.4-50c3.6-15.5,7-29.5,7.4-34.3c0.1-1.7-0.1-3.4-0.4-5.1c-0.1-0.6-0.2-1.2-0.2-1.8
		c0.1-1.8,1.8-2.3,3.7-2.3c10.2,0,12.1,7.3,11.6,14c-0.4,4-4.6,22.1-7.9,36.5L375.2,181.4z"/>
	<path class="st2" d="M512.9,173.9c-5.6,11.2-21.9,43.1-31.4,50.9c-3,2.4-6.6,3.8-10.4,3.9c-9.6,0-10.4-15.8-9.4-22.6
		c0-0.3,0-0.7,0.1-1c-7.3,12-17.7,24-29,24c-10.6,0-14-8-14-17.2c0-1,0-2,0.1-2.9c2.5-20.3,22-56.8,45-56.8
		c11.8,0,18.6,12.4,17.8,23.7c-0.2,1.9-0.6,3.7-1.2,5.5l-0.2,0.1c-0.8,0.5-1.6,0.8-2.5,0.9c-0.9-0.1-1.6-0.5-2.1-1.2
		c0.5-1.4,0.8-2.8,0.9-4.2c0.3-6.9-2.4-15.5-9.8-15.5c-14.3,0-29.9,36.7-30.9,48.5c-0.3,3.8,0.1,9.1,4.9,9.1
		c8.4,0,19.2-19.3,24.3-29.2c0.4-1.5,1.6-3.5,1.4-6c-0.2-1.8,1.9-2.3,3.9-2.4c8,0.7,10.6,3.9,11,8.2c0.4,4.2-1.4,9.6-2.1,14
		c-0.5,2.7-3.1,18.6,1.9,14c6.6-6.6,21.6-35.4,26.9-45.5"/>
	<path class="st2" d="M507.9,174c-9.9-0.5-13.3-8.7-12.6-17.1c0.8-9.2,7.6-19.4,17.7-19.4c5.6,0,8.3,3.7,7.9,10.4
		c-0.7,6.8-3.8,15.4-5.3,19.2c-0.2,0.4-0.2,0.6-0.4,1.1c1.8,0.3,3.7,0.4,5.5,0.4c1.1,0,2.2-0.1,3.4-0.1c1.2,0,2.2-0.1,3.1-0.1
		c2.1-0.1,4.1,0.2,6.1,0.8c1.8,0.8,2.5,2.5,2.5,5.3c0,6.5-4.7,17.8-7.5,24.4c-0.5,1.2-1.3,2.8-1.7,4c-5.2,14.7-11.1,31.4-13.8,44.8
		c2.9,2,5.5,4.4,7.9,7c0-8.4,4.6-14.2,10.6-16.4c2.4-0.9,4.9-1.4,7.4-1.4c9.7,0,15.9,7.8,15.9,16.6c0,9.2-8.7,19.9-25.2,23.7
		c-2.1,0.3-4.2,0.5-6.4,0.5c-14.2-0.1-25.7-9.3-26.1-28.4c-10.6-2.9-21.6-4.4-32.7-4.2c-10.9,0.1-21.8,1-32.6,2.6
		c-32.1,4.7-63.1,17.8-74.3,42.1c-0.1,0.3-0.4,0.8-0.5,1.2c-0.7,1.8-1.7,4.9-4.2,5.1c-2.6-0.1-4.5-3.6-5.6-7.4c-0.7-2.2-1-4.6-1-6.9
		c0-11.1,7.9-22.2,16.9-29.5c15.6-11.5,41.7-17.7,66-20c6.4-0.6,13.1-0.8,19.2-0.8c18.5,0,35.9,2.6,50.2,9.2
		c4.4-24.8,11.7-43.1,17.5-57.5c1.1-2.8,2-5.6,3.2-8.4c-1,0-2.1,0-3.1-0.1c-1,0-2.8-0.1-3.8-0.2 M510.2,167.4
		c1.1-2.4,5.1-11.7,5.6-16.9c0.1-1.4-0.1-2.1-0.4-2.1c-2.1,0-7.7,8.3-8.2,14C506.8,165,507.7,166.8,510.2,167.4L510.2,167.4z
		 M522.3,265.6c-0.9-2.8-3.6-6.8-10-10.5c0.7,8,4.6,17.1,13.7,15.9c9.6-1,17-8.9,17.4-18.6c0-4.6-2.1-8.2-6.8-8.2
		c-1.1,0-2.2,0.2-3.2,0.5c-4.6,1.4-8.7,6.9-8.7,13.5c0,2.2,0.5,4.3,1.3,6.3l-0.1-0.1c0.8,1.5,0.2,2-1.1,2.8
		C523.4,267.6,522.7,266.8,522.3,265.6L522.3,265.6z"/>
	<path class="st2" d="M554.1,231.3c-14,0-19.2-12.7-19.2-26.7c0-1.8,0-3.5,0.2-5.3v0.1c1.9-22.6,16.7-49.4,35.4-49.4
		c11.8,0,18.9,11.1,18.3,21.8c-1.7,15.2-19.9,25.5-33.6,28.4c-0.5,2.4-0.9,4.9-1.1,7.4c-0.1,1-0.1,2.3-0.1,3.3
		c0,5.9,1.6,11.5,8.2,12c10.3-0.3,18.4-14,23.6-22.6v0.1c3.2-5.6,6.1-11.3,8.3-15.8c1-2,2.6-4.9,3.6-6.8c0.5-0.2,1-0.4,1.5-0.5
		c1.1,0.1,2.1,0.8,2.4,1.9l-1,2.2c-2.4,5-6.2,12.3-10.4,19.7C583,214.5,572.9,231.3,554.1,231.3z M578.8,162.1
		c-7.9,0-20,24.1-22.3,32.8c9.1-1.2,26.4-10,27.3-22.1c0.3-2.7-0.2-5.4-1.4-7.7C581.4,163,580.1,162.1,578.8,162.1z"/>
	<path class="st2" d="M602.5,220.6c-0.4,4.4-4.5,6.8-8.1,6.8c-3.1,0-6-2-5.5-7.8c0.4-4.2,3.1-8.9,6.8-8.9c1.6,0,3.3,0.9,5,3.3
		C602,215.9,602.6,218.2,602.5,220.6z"/>
	<path class="st2" d="M651.1,178.3c0.2,0,0.4,0,0.6-0.1c1.3-0.4,2.7-0.1,3.6,0.9c-7,14.4-18.4,34.4-27.6,40.4
		c-9.2,44.3-23.8,91.6-50,88.5c-7.5-0.8-12.4-8.1-12.4-17.6c0-2.4,0.3-4.7,0.9-7c6.5-24.8,23.9-41.7,42.1-57.8
		c3.6-17.3,11.2-56.2,11.4-61.8c0.1-1.8,0-3.7-0.5-5.5c-0.1-0.6-0.2-1.2-0.2-1.8c0.2-1.8,1.9-2.3,3.9-2.4c9,0,12.3,4.4,13,9.9
		c-1.4,15.9-3.7,31.8-6.9,47.4c7.6-6.2,15.8-21.4,21.4-32.8L651.1,178.3z M576,296.3c3.1-0.4,6.1-2.9,8.8-6.4
		c7.9-10.6,14.5-31.5,18.8-45.8c0.7-2.1,1.2-4.2,1.8-6v0.1c0.5-1.7,0.7-2.1,1.1-3.9c-9.9,7.9-18.4,17.3-25.4,27.8
		c-3,4.7-10.3,19.5-10.3,28C570.9,293.6,572.3,296.3,576,296.3L576,296.3z M633,133.8c1,2.2,1.3,4.5,1,6.9c-1,4.1-4.9,6.7-9.1,6.2
		c-3.3-0.4-6.1-2.8-4.9-8.9c1-4.2,4.2-8.7,8.1-8.3c1.7,0.2,3.4,1.4,4.7,4.2L633,133.8z"/>
	<path class="st2" d="M650.8,179.3c-5-6.6-8.8-16-9-24.3c0-6.5,2-12.8,7.5-17.3c2.6-2.1,5.9-3.3,9.3-3.2c4.6,0,8.9,2.1,8.9,7.6
		c0,4.2-2.2,9.7-4.7,15.8c-1.2,3-2.5,6.2-3.6,9.4c10.4,15.6,19.7,32.8,19.8,42.1c5.8-8.8,11-18,15.6-27.5c0.1-0.2,0.3-0.5,0.3-0.5
		l0.8-1.6h-0.1c0.6-1.3,1-2.2,2.5-2.2c1.2,0.1,2.3,0.9,2.6,2l-0.6,1.2l-0.3,0.3c-5.9,11.9-18.4,37-29.1,45.1
		c-7.1,4.5-15.4,7-23.9,7.2c-8.9,0-15.9-3.2-15.3-10.2c0.2-1.9,2.2-4.4,4.4-4.4c1.6,0,1.6,1.8,1.5,3.4c-0.1,4.4,4.6,5.1,8.6,4.9
		c10.7-0.4,15.3-7.3,15.7-18.4c-0.1-7.2-3.7-18.4-8.8-26.2 M657,160.9c2.5-6,6.1-15,5.1-17.2h0.1c-0.4-0.8-0.8-1.2-1.3-1.3
		c-2.3-0.4-6.1,7.8-6.1,15c0,2.1,0.4,4.1,1.2,6L657,160.9z"/>
</g>
</svg>
