<?xml version="1.0" encoding="iso-8859-1"?>
<!-- Generator: Adobe Illustrator 21.1.0, SVG Export Plug-In . SVG Version: 6.00 Build 0)  -->
<svg version="1.1" id="Layer_1" xmlns="http://www.w3.org/2000/svg" xmlns:xlink="http://www.w3.org/1999/xlink" x="0px" y="0px"
	 viewBox="0 0 493.198 226.689" style="enable-background:new 0 0 493.198 226.689;" xml:space="preserve">
<g>
	<g id="g10" transform="matrix(1.3333333,0,0,-1.3333333,0,400)">
		<g id="g12" transform="translate(178.0626,235.0086)">
			<path id="path14" style="fill:#52B687;" d="M29.556,64.991L6.887,25.727l-22.669,39.264h-75.491l98.16-170.017l98.16,170.017
				H29.556z"/>
		</g>
		<g id="g16" transform="translate(178.0626,235.0086)">
			<path id="path18" style="fill:#445566;" d="M29.556,64.991L6.887,25.727l-22.669,39.264h-36.227L6.887-37.019l58.896,102.01
				H29.556z"/>
		</g>
	</g>
	<g>
		<path style="fill:#FFFFFF;" d="M60.846,90.502c1.008-0.648,2.016-0.937,3.24,0.504c-4.969,10.225-13.105,24.41-19.658,28.73
			c-6.409,31.539-16.922,65.238-35.499,63.005C3.528,182.094,0,176.982,0,170.141c0-1.584,0.216-3.312,0.649-4.968
			c4.824-17.57,16.993-29.739,30.026-41.116c0.792-3.744,1.584-7.489,2.304-10.585l1.152-4.896
			c-5.329,8.209-12.458,16.273-20.234,16.273c-7.489,0-10.009-5.544-10.009-12.025c0-0.648,0.072-1.584,0.144-2.304
			c1.8-14.473,15.625-40.396,31.898-40.396c8.497,0,13.393,8.857,12.673,16.85c-0.144,1.296-0.36,2.592-0.864,3.888
			c-0.216,0.288-1.512,0.72-1.8,0.72c-0.504,0-1.152-0.288-1.584-0.792c0.36-1.08,0.504-2.016,0.648-3.024
			c0.288-4.896-1.728-11.017-6.913-11.017c-10.153,0-21.313,26.138-22.034,34.563c-0.288,2.736,0,6.48,3.384,6.48
			c5.329,0,11.521-9.937,15.553-17.642c0.504-1.08,1.08-2.448,1.224-3.816c0.072-0.504,0.072-0.936,0.072-1.368l-0.288-1.656
			c-0.144-0.576-0.144-1.008-0.144-1.296c0.144-1.296,1.368-1.656,2.808-1.728c6.409,0,8.785,3.096,9.289,7.057
			c-0.432,5.185-1.008,10.297-1.8,16.058c5.112-4.825,10.801-15.122,14.617-22.754C60.773,90.574,60.846,90.574,60.846,90.502z
			 M7.561,174.317c2.304-0.288,4.392-1.944,6.264-4.464c5.689-7.272,10.081-21.458,13.249-31.827l1.512-4.968l0.432-1.944
			l0.288-0.864c-6.696,5.257-13.105,12.169-18.073,19.73c-2.088,3.456-7.273,13.897-7.273,20.018
			C3.961,172.517,4.969,174.317,7.561,174.317z"/>
		<path style="fill:#FFFFFF;" d="M58.392,101.375c0-1.44,0-2.88,0.144-4.032c0.36-4.536,1.008-8.641,2.088-11.449
			c1.873-2.304,4.608-3.312,7.273-3.312c1.512,0,3.24,0.432,4.536,1.08c1.008-10.153,4.249-21.17,15.698-21.17
			c9.36,0,13.249,8.281,13.249,18.866c0,1.44-0.072,2.808-0.216,4.104v-0.072c-0.72,7.417-3.24,15.697-6.913,22.61
			c7.417-1.512,11.377-8.856,15.049-15.985l1.585-2.88c0.432-0.216,0.936-0.432,1.224-0.432c0.504,0,1.008,0.288,1.296,1.44
			c-3.24,7.705-10.297,21.242-21.458,21.89c-4.896,7.417-11.521,12.601-19.226,12.601C61.776,124.633,58.392,111.672,58.392,101.375
			z M72.433,93.31c-0.288,1.512-0.432,3.24-0.576,4.824c-0.144,1.512-0.216,3.024-0.216,4.464c0,7.129,1.656,13.753,6.697,13.753
			c3.24,0,5.977-1.584,8.641-4.608C77.402,108.864,73.441,102.095,72.433,93.31z M89.931,107.712
			c3.745-6.049,6.409-14.545,7.057-22.106c0.144-1.296,0.144-2.521,0.144-3.745c0-8.281-2.808-14.977-9.217-14.977
			c-4.464,0-6.48,6.913-7.201,14.617c-0.144,1.728-0.288,3.888-0.288,6.192C80.426,95.83,81.938,106.2,89.931,107.712z"/>
		<path style="fill:#FFFFFF;" d="M107.64,101.375c0-1.44,0-2.88,0.144-4.032c0.36-4.536,1.008-8.641,2.088-11.449
			c1.873-2.304,4.608-3.312,7.273-3.312c1.512,0,3.24,0.432,4.536,1.08c1.008-10.153,4.248-21.17,15.698-21.17
			c9.36,0,13.249,8.281,13.249,18.866c0,1.44-0.072,2.808-0.216,4.104v-0.072c-0.72,7.417-3.24,15.697-6.913,22.61
			c7.417-1.512,11.377-8.856,15.049-15.985l1.584-2.88c0.432-0.216,0.936-0.432,1.224-0.432c0.504,0,1.008,0.288,1.296,1.44
			c-3.24,7.705-10.297,21.242-21.458,21.89c-4.896,7.417-11.521,12.601-19.226,12.601
			C111.024,124.633,107.64,111.672,107.64,101.375z M121.681,93.31c-0.288,1.512-0.432,3.24-0.576,4.824
			c-0.144,1.512-0.216,3.024-0.216,4.464c0,7.129,1.656,13.753,6.697,13.753c3.24,0,5.976-1.584,8.641-4.608
			C126.649,108.864,122.689,102.095,121.681,93.31z M139.178,107.712c3.745-6.049,6.409-14.545,7.057-22.106
			c0.144-1.296,0.144-2.521,0.144-3.745c0-8.281-2.808-14.977-9.217-14.977c-4.464,0-6.48,6.913-7.201,14.617
			c-0.144,1.728-0.288,3.888-0.288,6.192C129.673,95.83,131.186,106.2,139.178,107.712z"/>
		<path style="fill:#FFFFFF;" d="M182.377,113.4c0-0.864,0.072-1.873,0.145-2.953c0.072-1.296-0.072-1.296,0.288-3.168
			c-5.328,8.856-12.817,18.146-21.17,18.146c-7.561,0-10.081-5.617-10.081-12.025c0-0.72,0-1.585,0.072-2.304
			c1.8-14.474,15.625-40.396,31.971-40.396c2.592,0,4.752,0.792,6.696,2.232l0.721-2.736c2.088-9.073,3.96-16.777,4.176-19.729
			c0.072-1.584-0.144-2.736-0.288-3.601c-0.072-0.504-0.144-0.936-0.144-1.296c0.071-1.296,1.368-1.656,2.736-1.656
			c7.488,0,8.641,5.041,8.208,10.009c-0.359,4.393-2.952,15.41-5.689,27.075c-0.359,1.944-1.151,4.752-1.872,7.849
			c-2.088,8.137-4.752,19.01-4.752,25.418c0,0.864,0,1.656,0.143,2.304c0.288,2.088,1.225,2.952,2.593,2.952
			c2.376,0,5.688-2.52,7.561-4.68c4.968-5.544,9.289-14.545,12.169-20.378c1.296-2.664,2.232-4.68,2.809-5.472
			c0.359-0.288,0.863-0.36,1.151-0.36c0.792,0,1.297,0.576,1.656,1.368c-0.936,1.728-1.872,3.96-2.88,5.977
			c-3.385,6.913-7.345,15.122-11.737,20.954c-3.24,4.104-7.2,8.353-12.889,8.712C185.546,125.641,182.377,121.105,182.377,113.4z
			 M184.898,96.622c1.008-4.752,2.232-10.009,3.456-15.265c0.217-1.008,0.576-1.872,0.792-2.952c-0.935-0.72-2.088-1.08-3.456-1.08
			c-10.152,0-21.313,26.138-22.034,34.563c-0.287,2.736,0,6.48,3.385,6.48c6.48,0,14.545-15.193,17.93-21.818L184.898,96.622z"/>
		<path style="fill:#FFFFFF;" d="M224.135,57.739c3.312,0,6.337,1.512,6.337,5.4c0,2.953-1.584,6.913-3.385,11.233
			c-0.863,2.16-1.8,4.392-2.592,6.696c7.417,11.089,13.969,23.33,14.113,30.027c4.393-6.481,8.713-14.762,11.089-19.586
			c0.072-0.144,0.216-0.36,0.216-0.36l0.576-1.152h-0.072c0.433-0.936,0.721-1.584,1.801-1.584c0.863,0,1.512,0.576,1.872,1.44
			l-0.433,0.864l-0.216,0.216c-4.176,8.497-13.105,26.354-20.737,32.115c-4.681,3.169-11.521,5.113-16.994,5.113
			c-6.336,0-11.305-2.304-10.873-7.273c0.145-1.368,1.585-3.096,3.097-3.096c1.152,0,1.152,1.296,1.08,2.448
			c-0.072,3.096,3.312,3.601,6.12,3.457c7.633-0.288,10.873-5.185,11.161-13.105c-0.071-5.112-2.88-13.537-6.48-19.082l-3.168,7.129
			l-2.593-0.937l3.816-9.001c-3.312-4.248-5.688-10.441-5.688-16.346c0-4.608,1.44-9.145,5.329-12.313
			C219.238,58.531,221.759,57.739,224.135,57.739z M222.983,76.533c1.8-4.248,4.32-10.657,3.6-12.241h0.072
			c-0.288-0.576-0.576-0.864-0.937-0.936c-1.655-0.288-4.32,5.544-4.32,10.657c0,1.512,0.288,2.952,0.864,4.249L222.983,76.533z"/>
		<path style="fill:#FFFFFF;" d="M261.431,91.078c1.224-1.656,2.232-3.528,3.528-5.4c5.112-8.064,11.089-17.209,18.722-17.209
			c5.256,0,6.84,3.888,6.336,9.001c-0.504,5.256-2.88,12.313-5.112,18.865c-2.232,6.265-4.32,12.602-4.752,16.85
			c-0.072,1.944,0.071,5.544,1.656,5.544c4.536,0,18.073-26.714,18.865-28.226l0.216-0.504h-0.072
			c0.433-0.936,0.721-1.584,1.873-1.584c0.792,0,1.368,0.576,1.728,1.368l-2.16,4.392c-5.761,11.377-15.265,30.387-24.05,30.387
			c-6.625,0-8.785-4.104-8.785-9.793c0-0.648,0-1.512,0.072-2.16c0.937-7.416,4.608-17.497,7.417-24.986
			c1.944-5.185,3.6-9.433,3.816-11.377c0.071-0.936-0.144-1.296-0.648-1.296c-5.185,0-15.985,18.65-19.945,25.346v-0.072
			l-1.152,2.016h0.072c-1.585,3.816-2.809,9.433-3.24,13.897c-0.217,3.384,0.287,5.832,0.575,7.129
			c0.145,0.432,0.217,0.792,0.217,1.08c0,0.792-0.649,1.008-1.656,1.008c-6.913,0-8.713-6.12-8.713-12.025
			c0-0.936,0.072-1.944,0.144-2.952c0.576-6.697,4.177-21.89,7.417-35.571c2.592-11.017,4.969-21.026,5.257-24.41
			c0.071-1.584-0.145-2.664-0.288-3.6c-0.072-0.504-0.145-0.936-0.145-1.296c0.072-1.296,1.296-1.656,2.664-1.656
			c7.273,0,8.641,5.185,8.281,10.009c-0.288,2.88-3.24,15.697-5.617,25.994L261.431,91.078z"/>
		<path style="fill:#FFFFFF;" d="M336.169,91.222c-0.217,0.288-1.441,0.648-1.801,0.648c-0.504,0-1.08-0.288-1.512-0.864
			c0.36-1.008,0.504-1.944,0.648-2.952c0.216-4.896-1.729-11.017-6.985-11.017c-10.152,0-21.314,26.138-22.033,34.563
			c-0.217,2.736,0.071,6.48,3.456,6.48c6.049,0,13.681-13.753,17.281-20.81c0.288-1.08,1.152-2.521,1.008-4.248
			c-0.144-1.296,1.368-1.656,2.809-1.728c5.688,0.504,7.56,2.808,7.849,5.833c0.288,3.096-1.008,6.84-1.512,9.937
			c-0.36,1.944-2.232,13.249,1.368,10.009c4.68-4.681,10.656-15.481,14.4-22.61c1.08-2.304,2.232-4.536,3.024-5.832
			c0.36-0.144,0.721-0.216,1.08-0.216c0.864,0,1.368,0.576,1.728,1.368l-0.72,1.584c-3.961,7.993-12.386,25.13-19.154,30.675
			c-1.944,1.584-4.824,2.808-7.416,2.808c-6.841,0-7.417-11.233-6.697-16.057c0-0.216,0-0.072,0.072-0.72
			c-5.185,8.569-12.601,17.065-20.666,17.065c-7.561,0-10.009-5.688-10.009-12.241c0-0.576,0-1.44,0.072-2.088
			c1.8-14.474,15.625-40.396,31.971-40.396c8.425,0,13.249,8.856,12.673,16.849c-0.143,1.368-0.432,2.665-0.864,3.889
			L336.169,91.222z"/>
		<path style="fill:#FFFFFF;" d="M348.116,139.466c-6.841-2.016-14.689-3.024-23.258-3.024c-7.129,0-14.978,0.648-23.186,1.872
			c-22.826,3.384-44.932,12.673-52.925,30.026c-0.071,0.216-0.288,0.576-0.359,0.864c-0.504,1.296-1.225,3.456-2.952,3.6
			c-1.873-0.072-3.169-2.592-3.961-5.256c-0.504-1.584-0.72-3.24-0.72-4.896c0-7.92,5.616-15.769,12.024-21.026
			c11.09-8.208,29.667-12.601,46.948-14.257c4.537-0.432,9.361-0.576,13.682-0.576c13.177,0,25.562,1.872,35.715,6.552
			c3.097-17.641,8.353-30.674,12.457-40.899c0.792-2.016,1.44-3.96,2.305-5.977c-0.864,0-1.585,0-2.233-0.072
			c-0.721,0-2.017-0.072-2.736-0.144l-4.896,10.153c-2.017-0.432-2.521-0.504-3.097-0.792c1.656-3.312,3.385-6.48,4.969-9.793
			c-7.057-0.36-9.505-6.192-9.001-12.169c0.576-6.553,5.4-13.825,12.602-13.825c4.032,0,5.904,2.664,5.616,7.416
			c-0.504,4.825-2.736,10.945-3.744,13.681c-0.145,0.288-0.145,0.432-0.288,0.792c1.08,0.216,2.592,0.288,3.889,0.288
			c0.792,0,1.584-0.072,2.448-0.072c0.792,0,1.584-0.072,2.231-0.072c1.728,0,3.169,0.144,4.32,0.576
			c1.297,0.576,1.801,1.8,1.801,3.744c0,4.608-3.385,12.673-5.329,17.354c-0.359,0.864-0.935,2.016-1.224,2.88
			c-3.673,10.441-7.921,22.322-9.793,31.899c2.232,1.656,3.889,3.024,5.616,4.968c0-6.048,3.24-10.081,7.561-11.665
			c1.801-0.648,3.601-1.008,5.257-1.008c6.913,0,11.305,5.544,11.305,11.809c0,6.553-6.192,14.186-17.93,16.85
			c-1.439,0.216-3.096,0.36-4.536,0.36C356.612,159.628,348.404,153.076,348.116,139.466z M357.549,81.141
			c0.792-1.729,3.601-8.353,3.96-12.025c0.072-1.008-0.071-1.512-0.288-1.512c-1.512,0-5.472,5.905-5.832,10.009
			C355.173,79.413,355.749,80.709,357.549,81.141z M366.19,151.059c-0.649-2.016-2.592-4.825-7.129-7.489
			c0.505,5.688,3.24,12.169,9.722,11.305c8.208-1.008,12.385-7.921,12.385-13.249c0-3.24-1.513-5.833-4.824-5.833
			c-0.576,0-1.44,0.072-2.305,0.36c-3.312,1.008-6.192,4.896-6.192,9.577c0,1.44,0.288,2.88,0.937,4.464l-0.072-0.072
			c0.576,1.08,0.143,1.44-0.792,2.016c-0.936,0.36-1.44-0.216-1.728-1.008V151.059z"/>
		<path style="fill:#FFFFFF;" d="M388.797,126.649c-10.009,0-13.682-9.073-13.682-19.01c0-1.224,0-2.448,0.145-3.744v0.072
			c1.368-16.057,11.881-35.139,25.202-35.139c8.425,0,13.465,7.921,13.033,15.554c-1.225,10.801-14.185,18.146-23.906,20.233
			c-0.36,1.585-0.576,3.384-0.792,5.257c-0.072,0.72-0.072,1.656-0.072,2.376c0,4.176,1.152,8.209,5.833,8.569
			c7.345-0.216,13.105-9.937,16.777-16.058v0.072c2.304-3.96,4.32-8.065,5.904-11.233c0.72-1.44,1.872-3.456,2.592-4.825
			c0.505-0.216,0.937-0.36,1.081-0.36c0.863,0,1.367,0.576,1.728,1.368l-0.72,1.584c-1.728,3.528-4.392,8.785-7.417,14.042
			C409.391,114.696,402.19,126.649,388.797,126.649z M406.366,77.397c-5.616,0-14.257,17.138-15.841,23.33
			c6.48-0.864,18.793-7.128,19.514-15.77c0.216-1.8-0.145-3.6-1.08-5.472C408.238,78.045,407.303,77.397,406.366,77.397z"/>
		<path style="fill:#FFFFFF;" d="M428.253,119.016c-0.288,3.096-3.168,4.825-5.761,4.825c-2.231,0-4.248-1.44-3.888-5.545
			c0.288-3.024,2.232-6.336,4.824-6.336c1.152,0,2.376,0.648,3.528,2.376C428.037,116.136,428.397,117.72,428.253,119.016z"/>
		<path style="fill:#FFFFFF;" d="M457.847,88.918c0.071,0,0.216,0,0.432-0.072c0.648-0.144,1.441-0.36,2.592,0.648
			c-5.04,10.225-13.104,24.482-19.657,28.731c-6.553,31.539-16.922,65.238-35.571,63.005c-5.328-0.576-8.856-5.76-8.856-12.529
			c0-1.656,0.216-3.312,0.647-5.041c4.608-17.642,16.994-29.667,30.027-41.116c2.592-12.313,7.992-39.963,8.137-43.996
			c0.144-1.656-0.145-2.88-0.36-3.889c-0.144-0.576-0.144-1.008-0.144-1.296c0.144-1.296,1.367-1.656,2.808-1.728
			c6.409,0,8.785,3.096,9.289,7.057c-0.792,9.792-2.088,19.37-4.897,33.771c5.4-4.393,11.233-15.266,15.266-23.33L457.847,88.918z
			 M404.418,172.877c2.231-0.288,4.32-2.088,6.265-4.537c5.616-7.561,10.297-22.394,13.393-32.619
			c0.504-1.512,0.864-2.952,1.296-4.249v0.072c0.36-1.224,0.505-1.512,0.792-2.809c-6.696,5.329-13.177,12.241-18.073,19.802
			c-2.16,3.384-7.345,13.897-7.345,19.946C400.745,171.005,401.753,172.877,404.418,172.877z M445.029,57.235
			c0.792,1.944,0.936,3.6,0.72,4.896c-0.72,3.312-3.96,4.68-6.48,4.392c-2.376-0.288-4.32-2.016-3.456-6.336
			c0.72-3.024,3.024-6.192,5.761-5.904c1.224,0.144,2.448,1.008,3.384,2.952H445.029z"/>
		<path style="fill:#FFFFFF;" d="M463.243,57.739c3.312,0,6.337,1.512,6.337,5.4c0,2.953-1.584,6.913-3.385,11.233
			c-0.863,2.16-1.8,4.392-2.592,6.696c7.417,11.089,13.969,23.33,14.113,30.027c4.393-6.481,8.713-14.762,11.089-19.586
			c0.072-0.144,0.216-0.36,0.216-0.36l0.576-1.152h-0.072c0.433-0.936,0.721-1.584,1.801-1.584c0.863,0,1.512,0.576,1.872,1.44
			l-0.433,0.864l-0.216,0.216c-4.176,8.497-13.105,26.354-20.737,32.115c-4.681,3.169-11.522,5.113-16.994,5.113
			c-6.336,0-11.305-2.304-10.873-7.273c0.145-1.368,1.585-3.096,3.097-3.096c1.152,0,1.152,1.296,1.08,2.448
			c-0.072,3.096,3.312,3.601,6.12,3.457c7.633-0.288,10.873-5.185,11.161-13.105c-0.071-5.112-2.88-13.537-6.48-19.082l-3.168,7.129
			l-2.593-0.937l3.816-9.001c-3.311-4.248-5.688-10.441-5.688-16.346c0-4.608,1.44-9.145,5.329-12.313
			C458.347,58.531,460.867,57.739,463.243,57.739z M462.092,76.533c1.8-4.248,4.32-10.657,3.6-12.241h0.072
			c-0.288-0.576-0.576-0.864-0.936-0.936c-1.655-0.288-4.32,5.544-4.32,10.657c0,1.512,0.288,2.952,0.864,4.249L462.092,76.533z"/>
	</g>
</g>
</svg>
