<?xml version="1.0" encoding="utf-8"?>
<!-- Generator: Adobe Illustrator 21.1.0, SVG Export Plug-In . SVG Version: 6.00 Build 0)  -->
<svg version="1.1" id="Layer_1" xmlns="http://www.w3.org/2000/svg" xmlns:xlink="http://www.w3.org/1999/xlink" x="0px" y="0px"
	 viewBox="0 0 992.1 340.2" style="enable-background:new 0 0 992.1 340.2;" xml:space="preserve">
<style type="text/css">
	.st0{display:none;fill:#E4E4E4;}
	.st1{fill:#52B687;}
	.st2{fill:#445566;}
	.st3{fill:#FFFFFF;}
</style>
<rect y="0" class="st0" width="992.1" height="340.2"/>
<g>
	<path class="st1" d="M172.2,52.2l-31.5,54.4l-31.5-54.4H4.7l136,235.7L276.9,52.2H172.2z"/>
	<path class="st2" d="M172.2,52.2l-31.5,54.4l-31.5-54.4H59.1l81.6,141.4l81.6-141.4H172.2z"/>
</g>
<g>
	<path class="st3" d="M378.4,138c1.4-0.9,2.9-1.3,4.5,0.6c-7,14.4-18.5,34.5-27.7,40.6c-9.1,44.4-23.8,92-50,88.9
		c-7.6-0.9-12.6-8-12.6-17.8c0-2.3,0.3-4.8,0.9-7c6.7-24.7,24-42,42.2-57.9c1.2-5.3,2.2-10.6,3.2-14.9l1.7-6.9
		c-7.5,11.5-17.6,22.9-28.5,22.9c-10.6,0-14.1-7.8-14.1-17c0-0.9,0.1-2.2,0.3-3.2c2.6-20.3,22-57,45-57c12,0,18.9,12.6,17.9,23.8
		c-0.1,1.8-0.5,3.8-1.2,5.4c-0.8,0.5-1.7,0.9-2.6,1c-0.9,0-1.7-0.5-2.2-1.2c0.4-1.4,0.8-2.9,0.9-4.3c0.4-6.9-2.5-15.5-9.7-15.5
		c-14.3,0-30.1,36.8-31,48.7c-0.4,3.9,0,9.2,4.8,9.2c7.5,0,16.2-14,21.9-24.9c0.9-1.7,1.4-3.5,1.7-5.4c0.1-0.6,0.1-1.3,0-1.9
		l-0.4-2.3c-0.1-0.6-0.3-1.2-0.3-1.8c0.3-1.8,1.9-2.3,4-2.5c9.1,0,12.4,4.4,13.1,10c-0.6,7.3-1.4,14.5-2.6,22.7
		c7.3-6.7,15.3-21.4,20.6-32.1C378.2,138,378.4,138,378.4,138z M303.2,256.1c3.2-0.4,6.2-2.7,8.8-6.3c8-10.2,14.3-30.3,18.7-44.8
		l2.1-7l0.6-2.7l0.4-1.2c-10,7.9-18.5,17.2-25.5,27.9c-3,4.8-10.2,19.6-10.2,28.2C298.2,253.6,299.6,256.1,303.2,256.1z"/>
	<path class="st3" d="M374.9,153.3c0-1.9,0-3.8,0.3-5.7c0.3-5.4,1.3-10.9,3-16.2c2.6-3,6.3-4.8,10.2-4.7c2.2,0,4.4,0.5,6.3,1.6
		c1.4-14.3,6-29.8,22.2-29.8c13.2,0,18.7,11.7,18.7,26.6c0,1.9-0.1,3.9-0.3,5.8v-0.1c-1.2,11.1-4.5,21.9-9.7,31.9
		c10.5-2.1,16.1-12.4,21.1-22.5l2.2-4c0.5-0.3,1.2-0.5,1.7-0.6c0.6,0,1.4,0.4,1.8,2.1c-4.5,10.9-14.5,29.9-30.3,30.8
		c-6.9,10.5-16.2,17.8-27.1,17.8C379.7,186.1,374.9,167.8,374.9,153.3z M394.7,141.9c-0.4,2.1-0.6,4.5-0.8,6.7
		c-0.1,2.2-0.3,4.3-0.3,6.3c0,10.1,2.3,19.4,9.5,19.4c4.5,0,8.4-2.2,12.2-6.5C401.7,163.8,396.1,154.3,394.7,141.9L394.7,141.9z
		 M419.3,162.2c5.6-9.5,9.1-20.2,10-31.1c0.1-1.8,0.3-3.5,0.3-5.3c0-11.7-4-21.1-13-21.1c-6.3,0-9.2,9.7-10.1,20.6
		c-0.3,2.5-0.4,5.4-0.4,8.7C406,145.5,408.2,160.1,419.3,162.2L419.3,162.2z"/>
	<path class="st3" d="M444.3,153.3c0-1.9,0-3.8,0.3-5.7c0.3-5.4,1.3-10.9,3-16.2c2.6-3,6.3-4.8,10.2-4.7c2.2,0,4.4,0.5,6.3,1.6
		c1.4-14.3,6-29.8,22.2-29.8c13.2,0,18.7,11.7,18.7,26.6c0,1.9-0.1,3.9-0.3,5.8v-0.1c-1.2,11.1-4.5,21.9-9.7,31.9
		c10.5-2.1,16.1-12.4,21.1-22.5l2.2-4c0.5-0.3,1.2-0.5,1.7-0.6c0.6,0,1.4,0.4,1.8,2.1c-4.5,10.9-14.5,29.9-30.3,30.8
		c-6.9,10.5-16.2,17.8-27.1,17.8C449.1,186.1,444.3,167.8,444.3,153.3z M464.2,141.9c-0.4,2.1-0.6,4.5-0.8,6.7
		c-0.1,2.2-0.3,4.3-0.3,6.3c0,10.1,2.3,19.4,9.5,19.4c4.5,0,8.4-2.2,12.2-6.5C471.1,163.8,465.6,154.3,464.2,141.9L464.2,141.9z
		 M488.8,162.2c5.6-9.6,8.9-20.2,10-31.2c0.1-1.8,0.3-3.5,0.3-5.3c0-11.7-4-21.1-13-21.1c-6.3,0-9.2,9.7-10.1,20.6
		c-0.3,2.5-0.4,5.4-0.4,8.7C475.4,145.5,477.5,160.1,488.8,162.2L488.8,162.2z"/>
	<path class="st3" d="M549.8,170.2c0-1.2,0.1-2.6,0.3-4.3c0-1.6,0.1-3,0.4-4.4c-7.5,12.4-18,25.5-29.8,25.5
		c-10.6,0-14.3-7.9-14.3-17c0-1,0-2.2,0.1-3.2c2.6-20.3,22-57,45.1-57c3.4,0,6.7,1,9.5,3.1l0.9-3.8c3-12.8,5.7-23.7,5.8-27.9
		c0-1.7-0.1-3.4-0.4-5.1c-0.1-0.6-0.1-1.2-0.3-1.8c0.1-1.8,1.9-2.3,3.9-2.3c10.6,0,12.2,7,11.5,14.1c-0.5,6.2-4.3,21.8-8,38.2
		c-0.5,2.7-1.7,6.7-2.6,11c-3,11.5-6.7,26.8-6.7,35.9c0,1,0,2.2,0.3,3.2c0.4,3,1.7,4.3,3.6,4.3c3.4,0,8-3.5,10.6-6.6
		c7-7.8,13.1-20.5,17.1-28.8c1.2-2.6,2.5-5.2,4-7.8c0.5-0.4,1-0.5,1.7-0.5c1.2,0,1.8,0.8,2.3,1.9c-1.3,2.5-2.6,5.7-4,8.4
		c-4.8,9.7-10.4,21.4-16.6,29.7c-4.5,5.8-10.1,11.8-18.1,12.3C554.2,187.5,549.8,181.1,549.8,170.2z M553.3,146.5
		c1.4-6.7,3.1-14.1,4.9-21.5c0.3-1.4,0.8-2.6,1.2-4.3c-1.4-1-3.1-1.6-4.9-1.6c-14.3,0-30.1,36.8-31,48.7c-0.4,3.9,0,9.2,4.8,9.2
		c9.2,0,20.5-21.4,25.3-30.7L553.3,146.5z"/>
	<path class="st3" d="M600.8,136.9c-5.1-6.6-8.9-16.2-9.1-24.5c0-6.5,2.1-12.8,7.5-17.4c2.6-2.1,6-3.2,9.3-3.2
		c4.7,0,8.9,2.1,8.9,7.6c0,4.3-2.2,9.7-4.8,15.8c-1.2,3.1-2.6,6.2-3.6,9.5c10.5,15.7,19.7,32.9,20,42.2c5.8-8.8,11-18,15.7-27.6
		c0.1-0.3,0.3-0.5,0.3-0.5l0.8-1.7h-0.1c0.6-1.3,1-2.2,2.6-2.2c1.2,0,2.3,0.9,2.6,2.1l-0.6,1.2l-0.3,0.3
		c-5.8,11.9-18.5,37.2-29.3,45.2c-7.1,4.5-15.4,7-24,7.3c-8.9,0-15.9-3.2-15.3-10.2c0.3-1.9,2.2-4.4,4.4-4.4c1.7,0,1.7,1.8,1.6,3.5
		c-0.1,4.4,4.7,5.1,8.7,4.9c10.8-0.4,15.3-7.3,15.7-18.5c-0.1-7.3-3.6-18.4-8.7-26.2 M607.1,118.3c2.6-6,6.1-15,5.1-17.2h0.1
		c-0.4-0.8-0.8-1.2-1.3-1.3c-2.3-0.4-6.1,7.8-6.1,15c0,2.1,0.4,4.1,1.2,6L607.1,118.3z"/>
	<path class="st3" d="M661.2,138.8c1.7-2.3,3.1-4.9,4.9-7.6c7.3-11.4,15.7-24.2,26.4-24.2c7.4,0,9.6,5.4,8.9,12.7
		c-0.6,7.3-4,17.4-7.3,26.6c-3.1,8.8-6.1,17.8-6.7,23.7c-0.1,2.7,0.1,7.8,2.3,7.8c6.3,0,25.5-37.7,26.6-39.8l0.3-0.6h-0.1
		c0.6-1.3,1-2.2,2.6-2.2c1.2,0.1,2.1,0.9,2.5,1.9l-3.1,6.2c-8.2,16.1-21.5,42.9-33.8,42.9c-9.3,0-12.4-5.8-12.4-13.9
		c0-1,0-2.1,0.1-3.1c1.3-10.5,6.5-24.6,10.5-35.2c2.7-7.3,5.1-13.3,5.4-16.1c0.1-1.3-0.3-1.8-0.9-1.8c-7.3,0-22.5,26.3-28.1,35.8
		v-0.1l-1.7,2.9h0.1c-2.3,6.3-3.9,12.8-4.5,19.6c-0.3,3.4,0,6.7,0.8,10.1c0.1,0.5,0.3,1,0.3,1.6c0,1.2-0.9,1.4-2.3,1.4
		c-9.7,0-12.3-8.7-12.3-17c0-1.3,0.1-2.7,0.3-4.3c0.8-9.5,5.8-30.8,10.5-50.1c3.6-15.5,7-29.7,7.4-34.5c0-1.7-0.1-3.4-0.4-5.1
		c-0.1-0.6-0.1-1.2-0.3-1.8c0.1-1.8,1.8-2.3,3.8-2.3c10.2,0,12.2,7.3,11.7,14.1c-0.4,4-4.5,22.2-7.9,36.7L661.2,138.8z"/>
	<path class="st3" d="M799.5,131.4c-5.7,11.3-22,43.3-31.6,51.1c-3,2.5-6.6,3.8-10.5,4c-9.6,0-10.5-15.8-9.5-22.7c0-0.4,0-0.6,0.1-1
		c-7.3,12-17.8,24.1-29.2,24.1c-10.6,0-14.1-8-14.1-17.2c0-1,0-1.9,0.1-3c2.6-20.3,22-57,45.1-57c11.9,0,18.7,12.4,17.9,23.7
		c-0.1,1.8-0.6,3.8-1.2,5.4l-0.1,0.1c-0.8,0.5-1.7,0.8-2.6,0.9c-0.9,0-1.7-0.5-2.1-1.2c0.5-1.4,0.8-2.9,0.9-4.3
		c0.3-6.9-2.5-15.5-9.8-15.5c-14.3,0-30.1,36.8-31,48.7c-0.3,3.9,0.1,9.2,4.9,9.2c8.4,0,19.3-19.4,24.4-29.3c0.4-1.6,1.7-3.5,1.4-6
		c-0.3-1.8,1.9-2.3,4-2.5c8,0.6,10.6,4,11,8.2c0.4,4.1-1.4,9.6-2.1,14c-0.5,2.7-3.1,18.7,1.9,14.1c6.6-6.6,21.6-35.6,27-45.6"/>
	<path class="st3" d="M794.4,131.4c-10-0.5-13.3-8.7-12.7-17.1c0.8-9.2,7.6-19.4,17.8-19.4c5.7,0,8.3,3.8,7.9,10.5
		c-0.6,6.7-3.9,15.4-5.3,19.3c-0.3,0.4-0.3,0.6-0.4,1.2c1.8,0.3,3.6,0.4,5.6,0.4c1.2,0,2.2-0.1,3.5-0.1c1.3,0,2.2-0.1,3.1-0.1
		c2.1-0.1,4.1,0.1,6.1,0.8c1.8,0.8,2.6,2.6,2.6,5.3c0,6.5-4.8,17.9-7.5,24.5c-0.5,1.2-1.3,2.9-1.7,4c-5.2,14.8-11.1,31.5-13.9,45
		c2.9,2.1,5.6,4.4,7.9,7c0-8.4,4.5-14.3,10.6-16.5c2.3-0.9,4.9-1.4,7.4-1.4c9.7,0,15.9,7.8,15.9,16.7c0,9.2-8.7,20-25.3,23.7
		c-2.1,0.3-4.3,0.5-6.3,0.5c-14.3,0-25.8-9.3-26.3-28.5c-10.6-3-21.8-4.4-32.8-4.3c-10.9,0.1-21.9,0.9-32.7,2.6
		c-32.1,4.8-63.4,17.9-74.6,42.2c-0.1,0.3-0.4,0.8-0.5,1.2c-0.6,1.8-1.7,4.9-4.3,5.1c-2.6-0.1-4.4-3.6-5.7-7.4c-0.6-2.2-1-4.5-1-6.9
		c0-11.1,7.9-22.3,17-29.7c15.7-11.5,41.9-17.8,66.2-20.1c6.3-0.6,13.2-0.8,19.3-0.8c18.5,0,36,2.6,50.4,9.2
		c4.4-24.9,11.8-43.3,17.6-57.7c1.2-2.9,2.1-5.7,3.2-8.4c-1,0-2.1,0-3.1-0.1c-1,0-2.9-0.1-3.9-0.3 M796.8,124.8
		c1.2-2.5,5.1-11.8,5.7-17c0.1-1.4-0.1-2.1-0.4-2.1c-2.1,0-7.8,8.3-8.2,14.1C793.4,122.3,794.2,124.1,796.8,124.8L796.8,124.8z
		 M808.9,223.4c-0.9-2.9-3.6-6.7-10.1-10.6c0.6,8,4.5,17.1,13.7,15.9c9.7-1,17.1-8.9,17.5-18.7c0-4.5-2.1-8.2-6.7-8.2
		c-1,0-2.2,0.1-3.2,0.5c-4.7,1.4-8.7,6.9-8.7,13.5c0,2.2,0.5,4.3,1.3,6.3l-0.1-0.1c0.8,1.6,0.3,2.1-1.2,2.9
		C810,225.3,809.3,224.5,808.9,223.4L808.9,223.4z"/>
	<path class="st3" d="M840.8,188.9c-14.1,0-19.3-12.8-19.3-26.8c0-1.8,0-3.5,0.3-5.3v0.1c1.9-22.7,16.7-49.5,35.5-49.5
		c11.9,0,18.9,11.1,18.3,21.9c-1.7,15.3-20,25.5-33.7,28.5c-0.5,2.5-0.9,4.9-1.2,7.4c-0.1,1-0.1,2.3-0.1,3.4c0,5.8,1.7,11.5,8.2,12
		c10.4-0.3,18.5-14,23.7-22.7v0.1c3.2-5.7,6.1-11.4,8.3-15.8c1-2.1,2.6-4.9,3.6-6.7c0.5-0.3,1-0.4,1.6-0.5c1.2,0,2.1,0.8,2.5,1.9
		l-1,2.2c-2.5,4.9-6.2,12.4-10.5,19.7C869.8,172.1,859.6,188.9,840.8,188.9z M865.6,119.5c-7.9,0-20.1,24.2-22.3,32.9
		c9.1-1.2,26.4-10.1,27.5-22.2c0.3-2.7-0.1-5.4-1.4-7.8C868.1,120.4,866.9,119.5,865.6,119.5z"/>
	<path class="st3" d="M889.4,178.1c-0.4,4.4-4.4,6.7-8.2,6.7c-3.1,0-6-2.1-5.4-7.8c0.4-4.3,3.1-8.9,6.7-8.9c1.7,0,3.4,0.9,4.9,3.4
		C888.9,173.5,889.5,175.8,889.4,178.1z"/>
	<path class="st3" d="M938.1,135.6c0.3,0,0.4,0,0.6-0.1c1.3-0.4,2.7-0.1,3.6,0.9c-7,14.4-18.5,34.5-27.7,40.6
		c-9.2,44.4-23.8,92-50.1,88.9c-7.5-0.8-12.4-8.2-12.4-17.6c0-2.3,0.3-4.8,0.9-7c6.5-24.9,24-41.9,42.2-57.9
		c3.6-17.4,11.3-56.4,11.5-62.1c0.1-1.8,0-3.8-0.5-5.4c-0.1-0.6-0.3-1.2-0.3-1.8c0.3-1.8,1.9-2.3,4-2.5c9.1,0,12.4,4.4,13.1,10
		c-1.3,15.9-3.6,31.9-6.9,47.6c7.6-6.2,15.8-21.5,21.5-32.9L938.1,135.6z M862.8,254.2c3.1-0.4,6.1-3,8.8-6.3
		c7.9-10.6,14.5-31.6,18.9-46c0.6-2.1,1.2-4.3,1.8-6v0.1c0.5-1.7,0.6-2.1,1.2-4c-10,7.9-18.5,17.4-25.5,27.9
		c-3.1,4.8-10.4,19.6-10.4,28.1C857.7,251.5,859.1,254.1,862.8,254.2L862.8,254.2z M920,91.1c0.9,2.2,1.3,4.5,1,6.9
		c-1,4.1-4.9,6.7-9.2,6.2c-3.4-0.4-6.1-2.9-4.9-8.9c1-4.3,4.3-8.7,8.2-8.3C916.9,87.1,918.6,88.4,920,91.1L920,91.1z"/>
	<path class="st3" d="M937.9,136.7c-5.1-6.6-8.8-16.1-8.9-24.4c0-6.5,2.1-12.8,7.5-17.4c2.6-2.2,6-3.2,9.3-3.2
		c4.7,0,8.9,2.1,8.9,7.6c0,4.3-2.2,9.7-4.8,15.8c-1.2,3.1-2.6,6.2-3.6,9.5c10.5,15.7,19.7,32.9,20,42.2c5.8-8.8,11-18.1,15.7-27.6
		c0.1-0.3,0.3-0.5,0.3-0.5l0.8-1.6h-0.1c0.6-1.3,1-2.2,2.6-2.2c1.2,0,2.3,0.9,2.6,2.1l-0.6,1.2l-0.3,0.3
		c-5.8,11.9-18.5,37.2-29.3,45.2c-7.1,4.5-15.4,7-24,7.3c-8.9,0-15.9-3.2-15.3-10.2c0.3-1.9,2.2-4.4,4.4-4.4c1.7,0,1.7,1.8,1.6,3.5
		c-0.1,4.4,4.7,5.1,8.7,4.9c10.8-0.4,15.3-7.3,15.7-18.5c-0.1-7.3-3.8-18.5-8.8-26.3 M944.1,118.3c2.6-6,6.1-15,5.1-17.2h0.1
		c-0.4-0.8-0.8-1.2-1.3-1.3c-2.3-0.4-6.1,7.8-6.1,15c0,2.1,0.4,4.1,1.2,6L944.1,118.3z"/>
</g>
</svg>
